STARTFONT 2.1
COMMENT
COMMENT Converted from OpenType font "Q:\font stuff\winfont\TagettesPlus.ttf" by "otf2bdf 3.0".
COMMENT
FONT -FreeType-TagettesPlus-Medium-R-Normal--52-520-72-72-P-857-ISO10646-1
SIZE 52 72 72
FONTBOUNDINGBOX 431 108 -89 -39
STARTPROPERTIES 19
FOUNDRY "FreeType"
FAMILY_NAME "TagettesPlus"
WEIGHT_NAME "Medium"
SLANT "R"
SETWIDTH_NAME "Normal"
ADD_STYLE_NAME ""
PIXEL_SIZE 52
POINT_SIZE 520
RESOLUTION_X 72
RESOLUTION_Y 72
SPACING "P"
AVERAGE_WIDTH 857
CHARSET_REGISTRY "ISO10646"
CHARSET_ENCODING "1"
FONT_ASCENT 68
FONT_DESCENT 39
COPYRIGHT "Pia Frauss fecit AD MMV; for private use only"
_OTF_FONTFILE "Q:\font stuff\winfont\TagettesPlus.ttf"
_OTF_PSNAME "TagettesPlus"
ENDPROPERTIES
CHARS 61
STARTCHAR 0020
ENCODING 32
SWIDTH 365 0
DWIDTH 19 0
BBX 0 0 0 0
BITMAP
ENDCHAR
STARTCHAR 0023
ENCODING 35
SWIDTH 250 0
DWIDTH 13 0
BBX 141 91 -41 -24
BITMAP
00000000000000000000000000FFFF000000
0000000000000000000000001FFFFFF00000
000000000000000000000001FFFFFFFF0000
000000000000000000000007FFFFFFFFC000
00000000000000000000003FFC00003FF000
0000000000000000000000FF80000003FC00
0000000000000000000003FC000000007E00
000000000000000000000FE0000000001F00
000000000000000000003F80000000000F80
000000000000000000007E000000000003C0
00000000000000000001F8000000000001E0
00000000000000000003E0000000000000E0
0000000000000000000FC000000000000070
0000000000000000001F0000000000000070
0000000000000000003E0000000000000030
0000000000000000007C0000000000000038
000000000000000001F00000000000000038
000000000000000003E00000000000000038
000000000000000007C00000000000000038
00000000000000000F800000000000000030
00000000000000001F000000000000000070
00000000000000003E000000000000000070
00000000000000007C0000000000000000E0
0000000000000000780000100000000000E0
0000000000000000F00000180000000001C0
0000000000000001E000000C000000000380
0000000000000003C000000E000000000700
0000000000000003C0000007000000000E00
000000000000000780000003800000003C00
000000000000000F00000001C0000000F800
000000000000001E00000000F0000003E000
000000000000001E000000007C00000FC000
000000000000003C000000001F8000FE0000
00000000000000780000000007FFFFF80000
000000000000007000000000007FFF000000
00000000000000F000000000000000000000
00000000000001E000000000000000000000
00000000000001C000000000000000000000
00000000000003C000000000000000000000
000000000000038000000000000000000000
000000000000070000000000000000000000
0000000000000F0000000000000000000000
0000000000000E0000000000000000000000
0000000000001E0000000000000000000000
0000000000001C0000000000000000000000
0000000000003C0000000000000000000000
000000000000380000000000000000000000
000000000000780000000000000000000000
000000000000700000000000000000000000
000000000000E00000000000000000000000
000000000001E00000000000000000000000
000000000001C00000000000000000000000
000000000003C00000000000000000000000
000000000003800000000000000000000000
000000000007800000000000000000000000
000000000007000000000000000000000000
00000000000F000000000000000000000000
00000000000E000000000000000000000000
00000000001E000000000000000000000000
00000000001C000000000000000000000000
00000000003C000000000000000000000000
000000000038000000000000000000000000
000000000078000000000000000000000000
000000000070000000000000000000000000
0000000000F0000000000000000000000000
0000000000E0000000000000000000000000
0000000001E0000000000000000000000000
0000000001C0000000000000000000000000
0000000003C0000000000000000000000000
000000000380000000000000000000000000
000000000780000000000000000000000000
000000000F00000000000000000000000000
000000000F00000000000000000000000000
000000001E00000000000000000000000000
000000001E00000000000000000000000000
000000003C00000000000000000000000000
000000007800000000000000000000000000
000000007800000000000000000000000000
00000000F000000000000000000000000000
00000001F000000000000000000000000000
3C000001E000000000000000000000000000
7E000003C000000000000000000000000000
FE0000078000000000000000000000000000
FE00000F0000000000000000000000000000
FF00001E0000000000000000000000000000
7F00007C0000000000000000000000000000
7F8001F80000000000000000000000000000
3FC00FF00000000000000000000000000000
1FFFFFC00000000000000000000000000000
07FFFF000000000000000000000000000000
01FFF8000000000000000000000000000000
ENDCHAR
STARTCHAR 002B
ENCODING 43
SWIDTH 3461 0
DWIDTH 180 0
BBX 164 53 9 -37
BITMAP
00000000000000000000000003FF00000000000000
0000000000000000000000000FFFC0000000000000
0000000000000000000000003F07F0000000000000
0000000000000000000000007800F8000000000000
00000000000000000000000070003C000000000000
000000000000000000000000F0001E000000000000
0000000000007FC000000000E0000F00000FC00000
000000000007FFFC00000000E000078003FFFE0000
00000000003FFFFF80000000C00003803FFFFFC000
0007FF0000FF003FE0000000000003C0FF0003F000
003FFFE003F00007F8000000000001C7F00000F800
00FF83F807C00000FE000000000001FF8000003C00
01F8003E0F0000003F000000000000FE0000001E00
03C0000FBE0000001FC00000000001F80000000F00
0F800003F800000007E00000000007F00000000780
0F000000F800000003F0000000001F7000000003C0
1E000000FC00000000F8000000007C7800000003C0
3C000001FE0007F8007C00000000F03800000001E0
78000003CF803FFE003E0007E003C03C00000001E0
7000000387C07FFF801F007FFC0F801C00000000F0
7000000701E1F81FE00F81FFFF1E001C00000000F0
F000000700F3E003F007C7F01FF8000E00000000F0
E000000E007F8001F803EF8003F0000E07FC0000F0
E000000E003F0000F801FE0003E0000F3FFF0000F0
E000000E001E00007C00FC0007F00007FF7FC000F0
E000000C003F00003E00F8001E700007F007E000F0
E000000C007780003E00FC007C700007C001F000F0
E000000C00E3C0001E00FE00F070000F8000F800F0
F000000C01C1E0001F01FF03E070001FC0007C00F0
7000000C0380F0001F01CF8780700039C0003C00E0
7800000C0F007C000F03CF9F00700071E0001E00E0
3800000E1E001E000F0387FC007000E0E0001E01C0
3C00000E3C000F000F0383F800F001C070000E01C0
1E000006F80007C00F0381F000E003807C000F0380
0F000007E00001F00F0787F803E007001E000F0700
07C00007C000007E0F07BFFF9FC00F000FC00F1E00
03F8003FC000001FEF07FE7FFF800E0003F80F7C00
00FFFFFFC0000007FFFFF81FFF001C00F8FFFFF000
003FFFF0E0000000FFFF8003F8003801FC0FFFC000
0003FE00F00000003FFF8000000070038600070000
00000000780000007E0380000000F00736000F0000
000000003C000000FC03C0000001E0067E000F0000
000000001F000001F803C0000003C0067E001E0000
000000000F800003F001E0000007800E7E001E0000
0000000003F0000FE001F000000F00063C003C0000
0000000001FE007FC000F000003E00070000780000
00000000007FFFFF0000FC00007C00070000F00000
00000000000FFFF800007E0001F00003C003E00000
000000000001FFC000003F8007E00001F00FC00000
000000000000000000001FF03FC00000FFFF000000
000000000000000000000FFFFF0000007FFC000000
0000000000000000000003FFFC00000003C0000000
0000000000000000000000FFF00000000000000000
ENDCHAR
STARTCHAR 002C
ENCODING 44
SWIDTH 326 0
DWIDTH 17 0
BBX 50 49 -35 -26
BITMAP
00000000003F00
00000000007FC0
0000000000FFC0
0000000001E3C0
0000000003C1C0
000000000781C0
000000000781C0
000000000F03C0
000000000E0380
000000001E0380
000000001E0780
000000001C0700
000000001C0F00
000000001C0F00
000000001C1E00
000000003C3E00
000000003C7E00
000000003FFC00
000000001FFC00
000000001FBC00
000000001F3800
000000000C3800
00000000007000
00000000007000
0000000000E000
0000000000E000
0000000001E000
0000000001C000
00000000038000
00000000038000
00000000070000
000000000F0000
000000000E0000
000000001C0000
000000003C0000
00000000380000
00000000700000
3C000000F00000
7E000001E00000
7E000003C00000
FF000007800000
7F00000F000000
7F80003E000000
3F80007C000000
3FE001F0000000
1FFC1FE0000000
07FFFF80000000
01FFFE00000000
000F8000000000
ENDCHAR
STARTCHAR 002E
ENCODING 46
SWIDTH 500 0
DWIDTH 26 0
BBX 56 60 -28 -37
BITMAP
00000003000000
0000003FE03C3E
0000007FF0FFFF
000000F8F9FFFE
000000E03FC7F0
000000C01F83C0
000000001F03C0
000000000F0380
000000000F0380
00000000070780
00000000070700
00000000070700
00000000070F00
00000000078E00
00000000078E00
00000000079E00
00000000039C00
00000000039C00
0000000003B800
0000000003B800
0000000003F000
0000000007F000
0000000007E000
0000000007E000
0000000007C000
0000000007C000
00000000078000
000000000F8000
000000000F0000
000000000F0000
000000001E0000
000000001E0000
000000003C0000
00000000380000
00000000781000
00000000703000
00000000F03000
00000001E03000
00000003C03000
00000003803000
00000007806000
0000000F006000
0000001E00E000
0000003C00C000
0000007801C000
000000F0038000
000001E0070000
000003C00E0000
000007801C0000
00000F00780000
00001E01F00000
00003C07C00000
0000F81F800000
001FF3FC000000
0FFFFFF0000000
3FFFFF00000000
7FFF0000000000
FFE00000000000
7F000000000000
18000000000000
ENDCHAR
STARTCHAR 0040
ENCODING 64
SWIDTH 6634 0
DWIDTH 345 0
BBX 341 80 1 -21
BITMAP
00000000000000000000000000000000000000000000000000008000000000000000000000000000000000
00000000000000000000000000000000000000000000000000030000000000000000000000000000000000
000000000000000000000000000000000000000000000000000C0000000000000000000000000000000000
00000000000000000000000000000000000000000000000000300000000000000000000000000000000000
00000000000000000000000000000000000000000000000000E00000000000000000000000000000000000
00000000000000000000000000000000000000000000000007400000000000000000000000000000000000
000000000000000000000000000000000000000000000007F8800000000000000000000000000000000000
0000000000000000000000000000000000000000000EFFFE07800000000000000000000000000000000000
0000000000000000000000000000000000000001FFFFFF8019400000000000000000000000000000000000
000000000000000000000000000000000000007FFFFFC001A1200000000000000000000000000000000000
00000000000000000000000000000000000007FFFE00001E61402000000000000000000000000000000000
0000000000000000000000000000000000007FF0000E3FF05080C000000000000000000000000000000000
000000000000000000000000000000000003FC003E70605050038000000000000000000000000000000000
00000000000000000000000000000000000FC000C1C0E050301E0000000000000000000000000000000000
00000000000000000000000000000000003C000300C0A05003F80000000000000000000000000000000000
0000000000000000000000000000000000E000FF8120E021FFA00000000000000000000000000000000000
000000000000000000000000000000000301F70440A1FFFFFCC00000000000000000000000000000000000
000000000000000000000000000000000C0E0C047FFFFFFFC3000000000000000000000000000000000000
0000000000000000000000000000000010300A7FFFFFFF800C000000000100000000000000000000000000
0000000000000000000000000000000060401FFFE000000070000000010100000000000000000000000000
000000000000000000000000000000018041F90180000003800000000080C0000000000000000000000000
00000000000000000000000000000002004E0A000000003C0000000000C060000000000000000000000000
000000000000000000000000000000040070040F87FF01C000000000007038000000000000000000000000
0000000000000000000000000000000803B000308807FE0040000001802816000000000000000000000000
000000000000000000000000000000100C0F01C30407FFFF80000000E01609E00000000000000000000000
000000000000000000000000000000203001FFFC03F803C000000000780B861FFFE0000000000000000000
000000000000000000000000000000204000080100000C00000000002E04F1803FF8000000000000000000
000000000000000000000000000000218707F01E80007000000000201BC23F60001E000000000000000000
000000000000000000000000000000420C887F60838380000000001004F983FE0007000000000000000000
0000000000000000000000000000002C110981FF3FFC00000000001E031FF01C1C01800000000000000000
0000000000000000000000000000003026060200407FFF800000008BC0C1FB0E2200C00000000000000000
000000000000000000000200000000303861FC008183FF00000000867C300493FE00600000000000000000
0000000000000000000004000000004FE0923F1F7E020000000000610FFF087FFFE0200000000000000000
000000000000000000000C00000000401123C0F1000C00000000003CC07FC9D127FE200000000000000000
000000000000000000003880000000800FC0008E3C30000000000017F0000651143FA00000000000000000
00000000000000000000F1000000048002380301FFE0C00000000008FF001C4E1807F00000000000000000
0000000000000000000FE60000000887E148FC0202FFC000000000060FE02247F400F80000000000000000
000000000000000000FF9E000000088820F0FF0FBC1F000000000001000621F803003E0000000000000000
00000000000000001FFF340000001050410000FC4020000000000000C01940800060470000000000000000
0000000000000001FF05D8080000207F813C008000C0000000000000302141000007838000000000000000
0000000000000007C03FA03000004020F0C80103FB000000000000000CC126001FE000C000000000000000
000000000000001C00FE40E00000801388B0E20C3F8200000000000003C21800E038006000000000000000
00000000000000260FE187400001000C10993F04E0FC000000000000013C0003000C002000000000000800
000000002000004F7C061E800006000BE074C1E30030040000000000010000040003001000000000001000
00000000DC0000910018FB0000080008F0EC010000C0040000000000020000080001001800000000803000
0000000013000F9101FFC4000030F80B889002000300080000000000020000100000800800000001806000
00000000090018C97FFE180000C384060901FC03CC003800000000000200001C000040040000020300C100
00000000098010BE0000600007040409F09FE7CFF000D00010000000020000FF0000400400000403014300
0000000013C010460003800018080808C06200381007A00030000000020001238000200400000406068600
00000000153FFC21801C0000E07E080B905C001017FC4000E000000002000240C00020020000080A0D0C00
0000000023280C107FE000070091300C108007FFFFE18007C00000000200044040002002000038343A1C10
0000000020481E0C000000380310C013708038802006007D0020000002000440200020020000D068646820
0000000020301B03800007C63F9180FC805EC100403FFFE201C0000002000440200020020003219189D060
0000000010000D807FFFE81FC4D68127C03286008047FE0C0F8000000200084020002002001C4F3E1720C0
000000000E001EC0E0000FE0E438823927CC7801000000F3FB00400002000840200020020030F8F87C4180
8000000003001B671E3FF0E1246485D1384000FE003C00FF0403800001000840200020020043C301E18788
6000000001F6009801C1E11217A30F09E061031807FFFC00383E0000010008204000200200843FCF021D10
1F03FFFC0019B06E0141310A3C203E072061022818001F87FFEC000000800820400040020100C0200CF630
00FC00FFE000DC07C242120BD241FC02202105C8600001E000707000004004204000400202010411FF8860
000000039E000C00FF221FFE1187C202203D3E0980FFF07C1F819000002004108000800202023B080030C0
0000000071E0040002FFF909203F02041043C41107007C0E00E2080000100409000080040402410800C380
000000000E1FFC0001421110C0FC0138104204120800070380DE08000008020A00010004040240841F3D88
0000000001FFE40FE0C220E007F01EC0088202221007E180E14588F0000601040002000407027FE47FE210
00000000000002101DC1C0003F80E040070402C210083840712479100001811A000400080C87F91C000C60
000000000388461F87300001FC030020048807020808082019241E0860007FE100080008147FA10B00F1C0
00000000027FD807F8CC001FC00C701D387FF8810C04082008C423C9900000408010001012FA13888F1F80
00000000018000000043FFFC0037E002C01000408303882304E2C279086000226060001013E10D5041FF10
0000000000780000FC200000007D0E0000601C2040F07E2C831F820F0990C01D988000201FC0B4A02C1860
00000000000780008340000000E278010183FFF8200F81E84E02020BFA0B231447000020787F438027E7C0
0000000000007FC0F0C0000001CFE000FE0F00071C00009FF201020A1F8C249278C00047C88021C0207F00
00000000000001FF3F400000031ECFFC80180000038007108200820A09FFD85FE02F00F80700163FC00400
000000000000000FE04000000639300E8061F000007FF808820041120A0FFFFE2000FF0002801C00003800
0000000000000000F82000000072C00280BF00000000000B820030B1090C1868380002001C7FE38003C000
00000000000000001C2000000043000101CC03807E00000604000FE1110A284447000C00E000007FFC0000
00000000000000000E200000008400020211FE01FFFFC1FE08000030B08A244340F8301F00000000000000
00000000000000000240000000080000003E300003003FC1F000000FE051C280F007FFE000000000000000
00000000000000000340000000000000004061FFF080000000000000307383030FFE000000000000000000
0000000000000000038000000000000000009E000F400000000000000FCC7CFE0000000000000000000000
000000000000000004000000000000000001E00000E0000000000000000000000000000000000000000000
00000000000000000000000000000000000100000020000000000000000000000000000000000000000000
ENDCHAR
STARTCHAR 0041
ENCODING 65
SWIDTH 1557 0
DWIDTH 81 0
BBX 105 75 8 -9
BITMAP
00000000000000000000000FC000
00000000000000000003FFFFFF00
000000000000000000FFFF801F80
00000000000000001FFF80001F80
0000000000000001FFE000007C00
000000000000000FFC000001F000
000000000000007FC00000078000
00000000000003FC0000001F0000
0000000000001FE00000003C0000
0000000000007F00000000F00000
000000000001FC00000001E00000
00000000000FF000000003C00000
00000000003F8000000007800000
0000000000FF000000000F000000
0000000001FC000000001E000000
0000000007F0000000003C000000
000000001FC00000000078000000
000000003F0000000000F0000000
00000000FE0000000001E0000000
00000001F80000000003C0000000
00000007F0000000000780000000
0000000FC0000000000F80000000
0000001F80000000001F00000000
0000003F00000000003E00000000
0000007E00000000007E00000000
000000FC0000000000FC00000000
000001F80000000001F800000000
000003F00000000003B800000000
000007E000000000037000000000
00000FC00000000006E000000000
00001F80000000000CE000000000
00003F00000000001DC000000000
00003F0000000000398000000000
00007E0000000000338000000000
0000FC0000000000630000000000
0000FC0000000000E70000000000
0001F80000000001CE0000000000
0001F000000020018E0000000000
0003F000000030031C0000000000
0003E000000030071C0000000000
0003E0000000300E380000000000
0007C0000000301C380000000000
0007C00000006018380000000000
0007C00000006038700000000000
000780000000607FF00000000000
000780000000E0FFE00000000000
000780000000C1FFE00000000000
000780000001C1C1C00000000000
0007800000038381C00000000000
0007800000038703800000000000
0007800000070E03800000000000
00038000000E1C07000000000000
00038000001C380F000000000000
0003C0000078780E000000000000
0001C00000F0F01E002000000000
0001E00001E1E01C006000000000
0000F00007C3C03800E000000000
00007E003F07803801C000000000
03E01FFFFC0F0070038000000000
0FF00FFFF01E0070070000000000
1FF800FC003C00E00E0000000000
3BF80000007801C01C0000000000
77F8000000F001C0380000000000
67F8000001E00380F00000000000
67F8000007C00701E00000000000
E3F000000F001E0F800000000000
E1E000003E003C7F000000000000
E0000000F801F7F8000000000000
60000003F00FFFC0000000000000
7000001FC01FF000000000000000
7000007F001E0000000000000000
380003FC00000000000000000000
1F007FE000000000000000000000
0FFFFF0000000000000000000000
03FFF00000000000000000000000
ENDCHAR
STARTCHAR 0042
ENCODING 66
SWIDTH 1500 0
DWIDTH 78 0
BBX 84 74 4 -7
BITMAP
000000000000000FFF8000
00000000000001FFFFF000
0000000000001FFC03FC00
000000000000FF00003EF0
000000000003F800000FC0
00000000000FC000001F00
00000000003F0000003F80
0000000000FC000000F380
0000000003F0000001C3C0
0000000007E000000381C0
000000001F8000000701C0
000000003F0000000E01C0
000000007C0000001C01C0
00000001F80000003801C0
00000003E00000007003C0
00000007C0000000E003C0
0000000F80000001C00380
0000003F00000003800780
0000007E00000003800F00
000000FC00000007001E00
000001F80000000E001E00
000003F00000001C003C00
000007E00000001C007800
00000FC00000003800F000
00000F800000003001E000
00001F000000007003C000
00003E00000000E00F0000
00007C00000000E01E0000
00007C00000001C03C0000
0000F800000001C0F00000
0001F00000000381E00000
0001F003F8000387C00000
0003E007FE00070F000000
0003C00E0F000F1E000000
0007C03C07800E38000000
0007803003801C70000000
000F806001C01CE0000000
000F00C001C039C0000000
001F008000C03BC0000000
001F000000C073C0000000
001E000000C073E0000000
001E000000C0E1E0000000
003E000000C0E1F0000000
003E000000C1C0F8000000
003E000000C1C0F8000000
003E000001C3807C000000
003E000001C3803E000000
003E00000187001F000000
003E0000038F001F000000
001E0000038E000F800000
001E0000071E0007C00000
001E0000063C0003C00000
001F00000E3C0003E00000
000F00001C780001E00000
000F800078F00001E00000
0007C000F0F00001F00000
0003F007E1E00000F00000
0001FFFFC3C00000F00000
0000FFFF07800000F00000
00003FF80F000000F00000
000000001E000000F00000
000000003C000000F00000
000000007801E000E00000
00000000F007F000E00000
00000001E00FF001E00000
00000007804FF801C00000
0000000F01DFF803C00000
0000003C079BF007800000
000000F81F19F00F000000
003FFFFFFC1C003E000000
FFFFFFFFF01C00F8000000
FFFFFFFC000F8FF0000000
FFFFF0000007FF80000000
3FF8000000003000000000
ENDCHAR
STARTCHAR 0043
ENCODING 67
SWIDTH 1115 0
DWIDTH 58 0
BBX 69 75 8 -9
BITMAP
0000000000007FE000
000000000007FFFE00
00000000003FFFFF80
0000000000FF000FC0
0000000003F00001E0
000000000FC00000F0
000000003F00000070
00000000FC00000070
00000003F000000030
00000007C000000038
0000001F8000000030
0000003E0000000030
000000780000000070
000001F00000000070
000003E00000000070
0000078000000000E0
00000F0000000001E0
00001E0000000003C0
00003C000000000780
000078000400000F00
0000F0000600001F00
0001E0000600007C00
0003C000030001F800
0007800003E01FE000
000F800001FFFF8000
000F0000007FFE0000
001E0000000FE00000
003C00000000000000
003C00000000000000
007800000000000000
00F000000000000000
00F000000000000000
01E000000000000000
01C000000000000000
03C000000000000000
078000000000000000
078000000000000000
0F0000000000000000
0F0000000000000000
0E0000000000000000
1E0000000000000000
1C0000000000000000
3C0000000000000000
3C0000000000000000
380000000000000000
7800001FE000000000
7800007FF800000000
780000F0FE00000000
780000C01F00000000
F00000000F00000000
F00000000780000000
F00000000380000000
F000000001C0000000
F000000001C0000000
F000000001C0000000
F000000001C0000000
F000000001C0000000
F000000001C0000000
F000000001C0000000
F800000001C0000000
7800000003C0000000
780000000380000000
780000000380000000
7C0000000780000000
3C0000000F00000000
3E0000000E00000000
1F0000001E00000000
1F8000003C00000000
0FC00000F800000000
07F00001F000000000
03FE0007E000000000
01FFE07F8000000000
007FFFFF0000000000
001FFFFC0000000000
0003FFE00000000000
ENDCHAR
STARTCHAR 0044
ENCODING 68
SWIDTH 1711 0
DWIDTH 89 0
BBX 82 74 8 -8
BITMAP
000000000000000000E000
000000000000000003C000
000000000001FFFFCE0000
00000000001FFFFFF80000
0000000000FF8000FE0000
0000000007F80000EF0000
000000001F800001C78000
000000007C00000381C000
00000001F000000700E000
00000007C000000E007000
0000001F0000001C003800
0000003C0000001C003C00
000000F800000038001C00
000001E000000070000E00
000003C000000070000E00
00000780000000E0000700
00001F00000000C0000700
00003C00000001C0000700
0000780000000380000780
0000F00000000380000380
0001E00000000700000380
0003C00000000600000380
0007C00000000E00000380
000F800000001C00000380
000F000000001C00000380
001E0000000038000003C0
003C0000000038000003C0
007C0000000070000003C0
00780000000070000003C0
00F000000000E0000003C0
01F0001F8000E0000003C0
01E00019C001C0000003C0
03C00000E001C0000003C0
07C00000600380000003C0
0780000070038000000380
0F80000030070000000380
0F00000030070000000780
0F000000300F0000000780
1F000000300E0000000780
1E000000701E0000000700
1E000000701C0000000F00
3E000000603C0000000F00
3C00000060380000001E00
3C000000E0780000001E00
3C000000E0700000003C00
3C000001C0F00000003C00
3C000001C0E00000007800
3C00000381E00000007800
3C00000783C0000000F000
3C0000070380000001F000
3C00000E0780000001E000
3E00001E0700000003C000
3E00003C0F00000007C000
1F0000F81E000000078000
1F8001F03C0000000F0000
0FE00FE0380000001E0000
07FFFFC0780000003E0000
07FFFF00F00000007C0000
01FFFC01E0000000F80000
007FF003C0000001F00000
0007000780000003E00000
0000000F0000000FC00000
0000001E0000001F000000
0000003C0000007E000000
00000078000001F8000000
000000F0000007F0000000
000003C000001FC0000000
000007800000FF00000000
3FFF3E00000FF800000000
7FFFFFE007FFC000000000
F81FFFFFFFFC0000000000
F81F9FFFFF800000000000
FFFC000000000000000000
7FE0000000000000000000
ENDCHAR
STARTCHAR 0045
ENCODING 69
SWIDTH 1096 0
DWIDTH 57 0
BBX 73 78 6 -9
BITMAP
0000000000000003F000
000000000000000FFC00
000000000000001C1E00
00000000000000300600
00000000000000600300
00000000000000EF0380
00000000000000DF8380
00000000000000FF8180
0000000001FF80FF8180
000000000FFFC0FF8180
000000003FC3E07F8180
00000000FC00F07F0380
00000003F00078080380
0000000FC00038000380
0000001F000038000300
0000007C000038000700
000000F8000038000700
000001E0000078000E00
000003C0000070000E00
000007800000F0001C00
00000F00001FE0001C00
00001E00001F80003800
00003C00000000007800
0000780000000000F000
0000F00000000001E000
0001F00000000001C000
0003E000000000038000
0007E000000000078000
000FE0000000000F0000
000FC0000000001E0000
001FC0000000003C0000
003FC000000000780000
007DE000000001F00000
0079E000000003C00000
00F1F000000007800000
01E0F00000001F000000
01E0FC0000007E000000
03C07E000001F8000000
03C03F800007F0000000
07801FF0007FC0000000
07800FFFFFFF00000000
0F0003FFFFF800000000
0F00007FFFC000000000
1E000003F00000000000
1E000000000000000000
1E000000000000000000
3C000000000000000000
3C000000000000000000
3C000000000000000000
7800003FC00000000000
7800007FF00000000000
780000F0FC0000000000
780001C01E0000000000
780001800F0000000000
F8000180070000000000
F8000180038000000000
F8000180038000000000
F80001C0038000000000
F80000E003C000000000
F800002003C000000000
F800000003C000000000
F800000003C000000000
78000000038000000000
78000000038000000000
7C000000078000000000
7C000000070000000000
7E0000000F0000000000
3E0000001E0000000000
3F0000003E0000000000
1F8000007C0000000000
1FC00000F80000000000
0FE00003F00000000000
07F8001FE00000000000
03FFC1FF800000000000
01FFFFFF000000000000
007FFFFC000000000000
001FFFE0000000000000
00003C00000000000000
ENDCHAR
STARTCHAR 0046
ENCODING 70
SWIDTH 1269 0
DWIDTH 66 0
BBX 103 74 4 -8
BITMAP
000000000000000000000007F0
000000000000000000000FFFFE
00000000000000000001FFF3FE
0000000000000000003FF003F0
000000000000000003FE000F00
00000000000000001FC0007800
0000000000000000FC0001E000
0000000000000007E00007C000
000000000000003F80000F0000
00000000000000FC00003C0000
00000000000003F00000780000
0000000000000FC00001E00000
0000000000003F000003C00000
0000000000007C000007000000
000000000001F800001E000000
000000000003E000003C000000
00000000000FC0000078000000
00000000001F000000F0000000
00000000003E000001E0000000
00000000007C000003C0000000
0000000000F800000780000000
0000000001F000000F00000000
0000000003E000000E00000000
0000000007C000001C00000000
00000000078000003800000000
000000000F8000607800000000
000000000F0000607000000000
000000001F000060E000000000
000000001F000061E000000000
000000001E000063C000000000
000000001E0000638000000000
000000001E0000E70000000000
000000001E0001CF0000000000
000000001F0001CE0000000000
000000001F00079E0000000000
000000001F800F1C0000000000
000000000FE07E380000000000
0000000007FFFC380000000000
0000000003FFF0700000000000
0000000001FF80F00000000000
00000000000000E00000000000
00000000000001E00000000000
00000000000007E00000000000
000000000007FFFE0000000000
0000000000FFFFFF8000000000
000000000FFF0383C000000000
000000007FE00700C000000000
00000001FE000F000000000000
00000007F0000E000000000000
0000000FC0001C000000000000
0000003F00003C000000000000
0000007E000038000000000000
00000078000870000000000000
007E00F80018F0000000000000
01FF80F00030E0000000000000
0787C1F00071C0000000000000
0E1FC1F000E3C0000000000000
1C3FE1E001C780000000000000
383FE1F0038F00000000000000
703FC1F0071E00000000000000
603FC0F01E3C00000000000000
603F80FFFC7800000000000000
E01F003FF0F000000000000000
E000000601E000000000000000
E000000003C000000000000000
E00000000F8000000000000000
700000001F0000000000000000
700000007C0000000000000000
78000001F80000000000000000
3C00000FE00000000000000000
1F00007F800000000000000000
0FFC3FFE000000000000000000
07FFFFF0000000000000000000
00FFFF80000000000000000000
ENDCHAR
STARTCHAR 0047
ENCODING 71
SWIDTH 1230 0
DWIDTH 64 0
BBX 103 75 5 -8
BITMAP
00000000000000001FFFF00000
0000000000000007FFFFFF8000
000000000000007FFFFFFFF000
0000000000000FFFFFFFFFFE00
0000000000007FFFFF8003FF80
000000000003FFFF8000001FC0
00000000001FFFE000000003E0
00000000007FFE0000000001F0
0000000001FFE00000000000F8
0000000007FF0000000000007C
000000001FF80000000000003C
000000007FE00000000000001C
00000001FF000000000000001E
00000007FC000000000000000E
0000001FF0000000000000000E
0000003FC0000000000000000E
000000FF00000000000000000E
000001FC00000000000000000E
000003F800000000000000000C
00000FE000000000000000001C
00001FC000000000000000001C
00003F00000000000000000038
00007E00000000000000000078
0000FC00000000000000000070
0001F8000000000000000000E0
0003E0000000000000000001E0
0007C0000000000000000003C0
000F8000000000000000000780
001F0000000000000000001E00
001F0000000007000000007C00
003E0000000003C0000001F800
007C0000000001F0000007E000
00780000000000FE00007F8000
00F800000000001FFFFFFC0000
00F0000000000003FFFFE00000
00E000000000000007C0000000
01E00000000000000000000000
01C00000000000000000000000
01C00000000000000000000000
01C00000000038000000000000
01C00000000078000000000000
018000000000F8000000000000
01C000000001F0000000000000
01C000000003C0000000000000
01C00000000F80000000000000
01C00000003E00000000000000
00E0000000FC00000000000000
00F0000003F800000000000000
007800001FD800000000000000
007E0001FF3000000000000000
003FFFFFF86000000000000000
000FFFFFC0E000000000000000
0000FFFC00C000000000000000
0000000001C000040000000000
000000000380001C0000000000
00000000038000380000000000
00000000070000780000000000
000000000F0000F00000000000
000000000E0001E00000000000
000000001C0003C00000000000
000000003C0007800000000000
0000000078001F000000000000
00000000F0003E000000000000
00000001E000FC000000000000
00000003C003F0000000000000
00000007800FE0000000000000
0000001F003F80000000000000
0000003C00FE00000000000000
0000007807F800000000000000
000001E03FE000000000000000
0000078FFF8000000000000000
7FFFFFFFFC0000000000000000
FFFFFFFFC00000000000000000
FFFFFF80000000000000000000
7FF80000000000000000000000
ENDCHAR
STARTCHAR 0048
ENCODING 72
SWIDTH 1576 0
DWIDTH 82 0
BBX 111 77 4 -10
BITMAP
0000000000000000000001FFE000
00000000000000000001FFFFF000
0000000000000000001FFF03E000
000000000000000001FFE01F0000
00000000000000000FFC00FC0000
00000000000000007FC003F00000
0000000000000003FE000FC001FC
000000000000000FF0003F000FFE
000000000000003F80007C003FFE
00000000000000FE0001F000FFFE
00000000000003F80003E003FFFE
0000000000000FE00007800FFFFC
0000000000003F80000F001F8000
000000000000FE00001E007C0000
000000000001F800003C00F00000
000000000007E000007801E00000
00000000000FC00000F003C00000
00000000001F000001E007800000
00000000007E000003C00F000000
0000000000FC000007801E000000
0000000001F800000F003C000000
0000000003F000001E0078000000
0000000007E000001C00F0000000
000000000FC000003C01E0000000
000000000F8000007803C0000000
000000001F000000F00780000000
000000003F000000E00700000000
000000003E000001E00F00000000
000000007E000003C01E00000000
000000007C000003803C00000000
000000007C000187803800000000
000000007C00018F007800000000
000000007C00018E00F000000000
000000007C00031E00E000000000
000000007C00033C01E000000000
000000007C00063803C000000000
000000007C000E78038000000000
000000003E001CF0078000000000
000000003F0038F0070000000000
000000001F80F1FFFE0000000000
000000000FFFC1FFFE0000000000
0000000007FF03FFFC0000000000
00000000007807803C0000000000
0000000000000700380000000000
0000000000000F00780000000000
0000000000001E00700000000000
0000000000001C00F00000000000
0000000000003C00E00000000000
0000000000003801E00000000000
0000000000007001C00000000000
000000000000F003C00000000000
000000000000E003800000000000
000000000001C007000000000000
000000000003C007000000000000
000000000003800E000000000000
000000000007000E000000000000
00F80000000F001C000000000000
07FE0000001E001C000000000000
0F1F0000001C0038000000000000
1C7F0000003C0070000E00000000
38FF000000780070001C00000000
70FF000000F000E0003C00000000
60FF000001E001C0007800000000
C0FE000003C001C001F000000000
C0FE00000780038003E000000000
C03800000F0007000F8000000000
C00000001E000F003F0000000000
C00000003C001E01FC0000000000
E0000000F8007C0FF00000000000
60000001F001F07FC00000000000
70000007E01FFFFE000000000000
3800001F80FFFFF0000000000000
3E0000FE01FFFE00000000000000
0FC00FF800000000000000000000
07FFFFE000000000000000000000
01FFFF0000000000000000000000
001FC00000000000000000000000
ENDCHAR
STARTCHAR 0049
ENCODING 73
SWIDTH 1230 0
DWIDTH 64 0
BBX 103 74 4 -8
BITMAP
00000000000000000000000FE0
000000000000000000000FFFFC
00000000000000000003FFE3FE
0000000000000000003FE003F0
000000000000000003FC001F00
00000000000000003FC0007800
0000000000000001FC0001E000
000000000000000FE000078000
000000000000003F00001E0000
00000000000000FC00003C0000
00000000000003F00000F00000
0000000000000F800001E00000
0000000000003F000007800000
000000000000FC00000F000000
000000000001F000001E000000
000000000007E000003C000000
00000000000F80000070000000
00000000001F000000E0000000
00000000003E000001C0000000
00000000007C00000380000000
0000000000F000000700000000
0000000001E000000E00000000
0000000003E000001C00000000
0000000007C000003C00000000
000000000F8000007800000000
000000000F0000C07000000000
000000001F0000E0E000000000
000000001E000061E000000000
000000001E000061C000000000
000000003E0000638000000000
000000003E0000E78000000000
000000003E0000C70000000000
000000003E0001CE0000000000
000000003E00039E0000000000
000000001F00079C0000000000
000000001F801F3C0000000000
000000000FE07E380000000000
000000000FFFF8700000000000
0000000007FFF0700000000000
0000000001FF80E00000000000
00000000000000E00000000000
00000000000001C00000000000
00000000000003C00000000000
00000000000003800000000000
00000000000007800000000000
00000000000007000000000000
0000000000000F000000000000
0000000000000E000000000000
0000000000001E000000000000
0000000000001C000000000000
0000000000003C000000000000
00000000000038000000000000
00000000000070000000000000
007E00000000F0000000000000
03FF80000001E0000000000000
0787C0000001C0000000000000
1E1FC0000003C0000000000000
3C3FC000000780000000000000
383FC000000F00000000000000
707FC000000E00000000000000
E03FC000001E00000000000000
E03F8000003C00000000000000
E01F0000007800000000000000
E000000001F000000000000000
E000000003E000000000000000
E0000000078000000000000000
E00000001F0000000000000000
F00000007E0000000000000000
78000001F80000000000000000
3C000007E00000000000000000
3F00007F800000000000000000
0FFCFFFE000000000000000000
07FFFFF0000000000000000000
00FFFF00000000000000000000
ENDCHAR
STARTCHAR 004A
ENCODING 74
SWIDTH 1250 0
DWIDTH 65 0
BBX 100 86 4 -19
BITMAP
000000000000000000000FFFC0
00000000000000000003FFFFF0
0000000000000000007FFF01F0
000000000000000007FF8003F0
00000000000000003FF8001FC0
0000000000000001FF8000FE00
0000000000000007F80003E000
000000000000003FE000078000
000000000000007F00001E0000
00000000000001FC00003C0000
00000000000007F00000F80000
0000000000001FC00001E00000
0000000000003F000003C00000
000000000000FE000007800000
000000000001F800000F000000
000000000003F000001E000000
000000000007C000003C000000
00000000001F80000078000000
00000000003F000000F0000000
00000000007E000000E0000000
0000000000FC000001C0000000
0000000001F800000380000000
0000000001F000000780000000
0000000003E000000F00000000
0000000007E000000E00000000
0000000007C000001C00000000
000000000F8000003C00000000
000000001F0000003800000000
000000001F0000007000000000
000000001E000000E000000000
000000003E000000E000000000
000000003C000001C000000000
000000003C0000038000000000
000000003C0000038000000000
000000007C0000070000000000
000000007800010F0000000000
000000007800030E0000000000
000000007800031C0000000000
000000007800061C0000000000
0000000078000E380000000000
0000000038001C780000000000
00000000380038700000000000
000000003C0070E00000000000
000000001C00E0E00000000000
000000001F07C1C00000000000
000000000FFF01C00000000000
0000000003FC03800000000000
00000000000007000000000000
00000000000007000000000000
0000000000000E000000000000
0000000000000E000000000000
0000000000001C000000000000
00000000000018000000000000
00000000000038000000000000
00000000000070000000000000
00000000000070000000000000
000000000000E0000000000000
000000000000C0000000000000
000000000001C0000000000000
00000000000380000000000000
00000000000380000000000000
01FC0000000700000000000000
07FE0000000E00000000000000
0F1F0000000E00000000000000
1C1F0000001C00000000000000
383F8000001800000000000000
707F8000003800000000000000
707F8000007000000000000000
60FF800000E000000000000000
607F800000E000000000000000
E07F000001C000000000000000
E03E0000038000000000000000
E01C0000070000000000000000
E00000000E0000000000000000
600000001E0000000000000000
600000003C0000000000000000
60000000780000000000000000
70000000F00000000000000000
38000003E00000000000000000
3C000007800000000000000000
1E00001F000000000000000000
0F00007E000000000000000000
07E007F8000000000000000000
03FFFFE0000000000000000000
007FFF80000000000000000000
000FF800000000000000000000
ENDCHAR
STARTCHAR 004B
ENCODING 75
SWIDTH 2173 0
DWIDTH 113 0
BBX 111 77 4 -10
BITMAP
0000000000000000000003FE0000
00000000000000000001FFFF0000
0000000000000000001FF03E0000
000000000000000001FE01F00000
00000000000000001FC007C00000
0000000000000000FE001E000000
0000000000000007F00078000000
000000000000001F8000F0000010
00000000000000FE0003C00003FE
00000000000003F0000780000FFE
0000000000000FC0000E00001FFE
0000000000003F00003C00007FFE
000000000000FC0000780000FFFC
000000000003F00000F00001F800
000000000007C00001E00003E000
00000000001F800003C000078000
00000000003F00000780000F0000
0000000000FC00000F00001E0000
0000000001F800000E0000380000
0000000003F000001C0000700000
0000000007E00000380000E00000
000000000FC00000700001C00000
000000000F800000F00003800000
000000001F000000E00007000000
000000003E000001C0000E000000
000000007E00000380001C000000
000000007C000003800038000000
00000000FC000007000070000000
00000000F800000E0001E0000000
00000000F800020E0003C0000000
00000000F800061C000780000000
00000001F0000638000F00000000
00000001F0000C38003C00000000
00000001F0000C70007800000000
00000000F00018E001F000000000
00000000F00039E007C000000000
00000000F80071C01F0000000000
000000007C00E380FC0000000000
000000003F03C383F00000000000
000000001FFF07FFC00000000000
000000000FFE0FFF000000000000
0000000001E00FFF800000000000
0000000000001F87C00000000000
0000000000003E03C00000000000
0000000000003C01E00000000000
0000000000007800E00000000000
0000000000007000F00000000000
000000000000F000F00000000000
000000000001E000700000000000
000000000001E000700000000000
000000000003C000700000000000
00000000000780007800003C0000
0000000000078000380001FF8000
00000000000F0000380003FFC000
00000000000E000038000783E000
01F80000001C00003C000E00F000
07FE0000003C00003C001C007000
1E1E0000007800001C0018003800
187F0000007000001C0018003800
30FF000000F000001E0030001800
60FF000001E000001E0000001C00
60FE000003C000000E0000001C00
C0FE0000078000000F0000001C00
C07C00000F0000000F0000001C00
C00000001E000000078000001800
C00000003C000000078000003800
C0000000F800000007C000003800
60000001E000000003E000007000
70000007C000000001F000007000
3800001F0000000001F80000E000
3C00007C0000000000FC0001E000
1E0003F000000000007F0003C000
0FE0FFC000000000003FC01F8000
03FFFE0000000000000FFFFF0000
007FE000000000000007FFFC0000
00000000000000000000FFF00000
0000000000000000000003000000
ENDCHAR
STARTCHAR 004C
ENCODING 76
SWIDTH 1384 0
DWIDTH 72 0
BBX 102 75 4 -8
BITMAP
000000000000000000007FC000
00000000000000000007FFF800
0000000000000000003FFFFE00
000000000000000001FFFFFF80
000000000000000007FFFFFFC0
00000000000000001FFC001FE0
00000000000000003FC00003F0
0000000000000000FE000000F0
0000000000000001F800000078
0000000000000007E000000078
000000000000000F8000000038
000000000000001F000000003C
000000000000003E000000003C
0000000000000078000000003C
00000000000000F0000000003C
00000000000001E00000000038
00000000000003C00000000038
00000000000003800000000038
00000000000007000000000078
0000000000000F000000000070
0000000000001E0000000000F0
0000000000001C0000000000E0
000000000000380000000001C0
000000000000780000000003C0
00000000000070000000000780
000000000000E0060000000F00
000000000001E00E0000001E00
000000000001C00C0000003C00
000000000003800C000000F800
000000000007800C000001F000
000000000007000E000007C000
00000000000F000700001F8000
00000000000E00078000FE0000
00000000001E0003F81FF80000
00000000001C0001FFFFE00000
00000000003C00007FFE000000
00000000003800000000000000
00000000007000000000000000
00000000007000000000000000
0000000000E000000000000000
0000000000E000000000000000
0000000001C000000000000000
0000000001C000000000000000
00000000038000000000000000
00000000038000000000000000
00000000070000000000000000
000000000E0000000000000000
000000000E0000000000000000
000000001C0000000000000000
000000001C0000000000000000
00000000380000000000000000
00000000700000000000000000
00000000F00000000000000000
00000000E00000000000000000
00000001C00000000000000000
00000003800000000000000000
00000007800000000C00000000
0000000F000000001C00000000
0000001E000000003800000000
0000003C000000003800000000
00000078000000007000000000
000000F000000000F000000000
000001E000000001E000000000
000003C000000003C000000000
00000780000000078000000000
00000E000000000F0000000000
00003C000000003E0000000000
03F9F800000000FC0000000000
1FFFF000000007F00000000000
7FFFFFE000003FE00000000000
E03FFFFFF80FFF800000000000
E1FC3FFFFFFFFE000000000000
7FF003FFFFFFF0000000000000
3F00003FFFFF80000000000000
00000000FFE000000000000000
ENDCHAR
STARTCHAR 004D
ENCODING 77
SWIDTH 2153 0
DWIDTH 112 0
BBX 140 77 4 -10
BITMAP
0000000000000000000000007FFFC0000000
00000000000000000000007FFFFFFC0001F0
000000000000000000001FFF00001E000FE0
00000000000000000003FF00000007007F00
0000000000000000001FE00000007F03F000
000000000000000000FE00000003FC0FC000
000000000000000007E00000001F801E0000
00000000000000003F000000007E00780000
0000000000000000FC00000001F001F00000
0000000000000007E000000003E003C00000
000000000000001F800000000F800F800000
000000000000007E000000001F001F000000
00000000000000F8000000007C007C000000
00000000000003F000000000F800F8000000
0000000000000FC000000001F001F0000000
0000000000003F0000000003E003E0000000
0000000000007E0000000007C00FE0000000
000000000001F8000000001F801FC0000000
000000000003F0000000003F003F80000000
000000000007E0000000007E007700000000
00000000000FC000000000FC00EE00000000
00000000003F0000000001F801DE00000000
00000000007E0000000003F8039C00000000
0000000000FC000000000770073800000000
0000000001F8000000000EE00E7000000000
0000000003F0000000001DC01C7000000000
0000000007E0000000003B8038E000000000
000000000FC000000000738071C000000000
000000000F8000000000F700F1C000000000
000000001F8000000000EE01E38000000000
000000003F0000000001DE01C38000000000
000000007E00000000039C03870000000000
00000000FC00000000073807060000000000
00000000F8000000000E780E0E0000000000
00000001F8000000000C701C1C0000000000
00000003F0000000001CE03C1C0000000000
00000003F00000000038E038380000000000
00000007E00000000071C070380000000000
00000007C0000002006380E0700000000000
0000000FC000000600E381C0700000000000
0000000FC000000601C703C0E00000000000
0000000F8000000603860380E00000000000
0000001F8000000C070E0701C00000000000
0000001F8000000C071C0E01C00000000000
0000001F0000001C0E1C0E03800000000000
0000001F000000181C381C03800000000000
0000001F0000003838303807000000000000
0000001F0000007070703007000000000000
0000001F00000070F0E0700E000000000000
0000001F000000E0E0E0E00E000000000000
0000001E000001C1C1C1C01C000000000000
0000001F000003C383C1801C000000000000
0000001F0000078703838038000000000000
0000001F00000F0E07070038000000000000
0000000F80003E1C070E0070000000000000
0000000FC0007C380E1C00F0000000000000
00000007E001F8700E1800E0000000000000
03FE0003F80FE0E01C3801E0001800000000
0F9F0001FFFF83C01C7001C0003800000000
1C7F00007FFE078038E00380007000000000
38FF80000FF00F0039C0078001E000000000
70FF800000001E003B80070003C000000000
60FF0000000078003F000E000F8000000000
60FF00000000F0003E001C003E0000000000
E07E00000003E0003C003800FC0000000000
E01800000007800000007003F00000000000
E0000000001F00000000E00FC00000000000
E0000000007C00000003E07F000000000000
6000000001F00000003FFFFC000000000000
7000000007C00000007FFFE0000000000000
380000003F000000003FFE00000000000000
3C000000FC00000000000000000000000000
1F000007F000000000000000000000000000
0FE0007F8000000000000000000000000000
03FFFFFE0000000000000000000000000000
00FFFFE00000000000000000000000000000
0007E0000000000000000000000000000000
ENDCHAR
STARTCHAR 004E
ENCODING 78
SWIDTH 1807 0
DWIDTH 94 0
BBX 160 75 4 -8
BITMAP
0000000000000000000000000000000000003E00
0000000000000000000000001F800000001FFFF0
0000000000000000000001FFFFFF000001FFC07C
000000000000000000007FFFC01FC0000FF0000F
00000000000000000007FF000001C0003F000007
0000000000000000007FC0000007C001F8000002
000000000000000003F80000003F8007E0000000
00000000000000001F80000000FC000F00000000
0000000000000000FC00000003F0003C00000000
0000000000000003F00000000FC000F000000000
000000000000001F800000003F0003E000000000
000000000000007E00000000FE00078000000000
00000000000001F800000003FC000F0000000000
00000000000007E000000007F0003C0000000000
0000000000000F800000001EE000780000000000
0000000000003F000000003DC000E00000000000
000000000000FC000000007B8003C00000000000
000000000001F000000001E70007800000000000
000000000007E000000003CE000F000000000000
00000000000FC0000000079E001E000000000000
00000000001F000000000F3C003C000000000000
00000000007E000000001E380078000000000000
0000000000FC000000003C7000E0000000000000
0000000001F80000000078E001C0000000000000
0000000003F000000000F1C00380000000000000
0000000007E000000001E3800700000000000000
000000000FC000000003C7800F00000000000000
000000001F800000000787001E00000000000000
000000003F00000000070E003C00000000000000
000000003E000000000E1C007800000000000000
000000007C000000001E3C00F000000000000000
00000000F8000000003C3800E000000000000000
00000001F800000000787001C000000000000000
00000003F00000000070E0038000000000000000
00000003E000000000E0E0078000000000000000
00000007E000000001E1C00F0000000000000000
0000000FC000000003C3C00E0000000000000000
0000000F800000000783801C0000000000000000
0000001F80000010070780380000000000000000
0000001F000000100F0700780000000000000000
0000001F000000301E0E00700000000000000000
0000003E000000303C0E00E00000000000000000
0000003E00000070381C01C00000000000000000
0000003E00000060781C03C00000000000000000
0000003E00000060F03803800000000000000000
0000007C000000E1E03807000000000000000000
0000007C000001C1C0700E000000000000000000
0000007C00000183C0700E000000000000000000
0000007C0000038780F01C000000000000000000
0000007C0000070F00E038000000000000000000
0000003C00000E1E00E078000000000000000000
0000003C00001E1E01C070000000000000000000
0000003C00003C3C01C0E0000000000000000000
0000003E000078780381C0000000000000000000
0000001F0001F0F00383C0000000000000000000
0000001F8003C1E0038380000000000000000000
01F8000FC01F83C0070700000000000000000000
0FFE0007FFFF0780070F00000000000000000000
1E7E0001FFFC0F000E1E00000000000000000000
38FF00007FE01E000E1C00000000000000000000
71FF000000003C000E3C00000000000000000000
61FF00000000F8001C7800000000000000000000
E0FE00000001F0001CF000000000000000000000
C0FC00000007E0001DE000000000000000000000
C0300000000F80003BC000000000000000000000
C0000000003F00003FC000000000000000000000
E000000000FC00003F8000000000000000000000
6000000003F000001E0000000000000000000000
700000001FC00000180000000000000000000000
780000007F000000000000000000000000000000
3C000003FC000000000000000000000000000000
1F00001FE0000000000000000000000000000000
0FE003FF00000000000000000000000000000000
03FFFFF800000000000000000000000000000000
00FFFF0000000000000000000000000000000000
ENDCHAR
STARTCHAR 004F
ENCODING 79
SWIDTH 1269 0
DWIDTH 66 0
BBX 64 74 9 -8
BITMAP
0000000000F00000
000000000FFE0000
000000007FFFF800
00000001F81FFF00
00000007C03FFF80
0000000F00F187E0
0000003C03C181E0
00000078070180F0
000001F00E0380F8
000003E038030078
000007807007007C
00000F00E006003C
00001E01C00E003E
00003C03801C003E
00007807003C003E
0000F00E0078001E
0001E01C0070001E
0003C03801E0001E
0007C07003C0001E
000780700780001E
000F00E00F00001F
001E01C03E00001F
003E01C07C00001F
003C0381F000001E
007C0383E000001E
00F8070F8000003E
00F0073F0000003E
01F007FC0000003E
01E00FF00000003E
03E1FF800000003C
03FFFE000000003C
07FFCC000000007C
07F01C000000007C
0F80180000000078
0F80180000000078
1F003800000000F8
1F003800000000F0
1F003800000001F0
3E003800000001E0
3E003800000001E0
3E003800000003C0
3C003800000003C0
7C00380000000780
7C00380000200780
7800380000E00F00
7800180001C01F00
78001C0003801E00
F8001C000F003E00
F8000E003C003C00
F8000781F8007800
F80003FFE000F800
F80001FF8000F000
F80000180001E000
F80000000003C000
F80000000007C000
F800000000078000
F8000000000F0000
78000000001E0000
78000000003C0000
7800000000780000
7C00000000F00000
7C00000001E00000
3C00000003C00000
3E00000007800000
1E0000001F000000
1F0000003E000000
0F80000078000000
07C00001F0000000
03E00003E0000000
01F8001F80000000
00FE007E00000000
007FFFFC00000000
001FFFE000000000
0007FF0000000000
ENDCHAR
STARTCHAR 0050
ENCODING 80
SWIDTH 1480 0
DWIDTH 77 0
BBX 91 74 4 -8
BITMAP
000000000000000078000000
000000000000007FFFF00000
00000000000007FFFFFE0180
0000000000003FF0003FFFE0
000000000001FE000007FFC0
000000000007E0000003F000
00000000003F80000007F800
0000000000FC0000001F7C00
0000000001F00000007E3E00
0000000007C0000000F81E00
000000001F00000001F00F00
000000003E00000003C00F00
00000000780000000F800700
00000001F00000001F000780
00000003C00000003E000380
000000078000000038000380
0000000F0000000078000380
0000001E00000000F0000380
0000003C00000001E0000380
0000007800000003C0000380
000000F00000000380000380
000001E00000000780000380
000003C00000000F00000780
000007800000000E00000700
00000F000000001E00000700
00001F000000001C00000F00
00001E000000003C00000F00
00003C000000003800001E00
000078000000007830001E00
0000F80000000071FC003C00
0000F000000000F3FC007800
0001F000000000E3FE00F800
0003E000000001E7FE00F000
0003E000000001C7FE01E000
0007C000000003C6FC07C000
0007C00000000386780F8000
000F800000000787003F0000
000F80000000070780FC0000
001F000000000F03FFF00000
001F000000000E01FFC00000
001F000000001E007C000000
003E000000003C0000000000
003E000000003C0000000000
003E00000000780000000000
003E00000000780000000000
003C00000000F00000000000
003C00000001F00000000000
003C00000003E00000000000
003C00000003E00000000000
003C00000007C00000000000
003C0000000FC00000000000
003C0000001F800000000000
003C0000003F000F80000000
003C00000077000F80000000
001C000000E60001C0000000
001E000003CE0001C0000000
001E0000079C0001C0000000
000F00000F3C000180000000
000F80003C78000380000000
0007C000F8F0000380000000
0003F003F1E0000700000000
0000FFFFC3C0000E00000000
00003FFE0780001C00000000
000001C00F00007800000000
000000003E0000F000000000
00000000780003E000000000
00000001F0001FC000000000
00000007C000FF0000000000
0000001F001FF80000000000
03E00FFDFFFFC00000000000
3FFFFFFFFFFC000000000000
7FFFFFFFF800000000000000
FFFFC0000000000000000000
7FC000000000000000000000
ENDCHAR
STARTCHAR 0051
ENCODING 81
SWIDTH 1153 0
DWIDTH 60 0
BBX 68 106 5 -39
BITMAP
0000000000000FF000
0000000000007FFC00
000000000001FE7E00
000000000007E00F00
00000000001F000380
00000000007C0001C0
0000000000F00001C0
0000000003E00000E0
0000000007C00000E0
000000000F00000060
000000001E00000070
000000003C00000070
000000007800000070
00000000F000000070
00000001E000000070
00000003E000000070
00000007C000000070
000000078000000070
0000000F80000000E0
0000001F00000000E0
0000001E00000000E0
0000003E00000000E0
0000003C00000001C0
0000007C00000001C0
0000007800000001C0
000000F80000000380
000000F00000000380
000000F00000000300
000001F00000000700
000001E00000000700
000001E00000000E00
000001E00000000C00
000003E00000001C00
000003E00000003800
000003E00000003800
000003E00000007000
000003E0000040E000
000003E0000181E000
000003E0000383C000
000001E00007078000
000001F0001E0F0000
000001F0003C1E0000
000001F800F83C0000
000000FE01E0780000
000000FFFFC0F00000
0000007FFF03E00000
0000003FFC07C00000
0000000FE00F000000
00000000003E000000
00000000007C000000
0000000001F0000000
0000000007C0000000
000000001F80000000
000000003E00000000
00000000F800000000
00000003E000000000
0000000F8000000000
0000003E0000000000
000000F80000000000
000003E00000000000
00000F800000000000
00003E000000000000
0000F8000000000000
0001F0000000000000
0007C0000000000000
001F00000000000000
003E00000000000000
007C00000000000000
00F000000000000000
01E000000000000000
03C000000000000000
07800001FF00000000
0F00000FFFE0000000
1F00001E00F8000000
1E000038003C000000
3C000070000E000000
3C0000E00007000000
780001C00003800000
780001800001800000
700001800001C00000
F00001800000C00000
F00001800000C00000
F00001800000C00000
F00000C00000E00000
F00000600000E00000
F00000000000E00000
F00000000000E00000
F00000000000E00000
F00000000000C00000
F00000000000C00000
F00000000001C00000
F80000000001800000
780000000003800000
7C0000000003000000
3C0000000007000000
3E0000000006000000
1F000000000E000000
1F800000001C000000
0FC000000038000000
07E0000000F0000000
03F0000001E0000000
00FC000007C0000000
007F80003F00000000
001FFC1FFC00000000
0003FFFFE000000000
00003FFE0000000000
ENDCHAR
STARTCHAR 0052
ENCODING 82
SWIDTH 2038 0
DWIDTH 106 0
BBX 97 77 3 -9
BITMAP
00000000000000000000800000
00000000000000000003800000
0000000000000000001F000000
000000000000000000FC000000
00000000000001FFF3F0000000
0000000000003FFFFF80000000
000000000003FF007FC0000000
00000000000FE0003FE0000000
00000000007F000079F0000000
0000000001F80000F078000000
0000000007C00000E03C000000
000000001F000001C01E000000
000000007E000003800E000000
00000000F8000007800F000000
00000003E000000F000F000000
00000007C000000E0007000000
0000001F0000001C0007000000
0000003E0000003C0007000000
0000007C000000380007000000
000000F8000000700007000000
000001F000000070000F000000
000003E0000000E0000E000000
000007C0000001C0000E000000
00000F80000001C0001E000000
00001F0000000380001C000000
00003E0000000380003C000000
00007C00000007000078000000
0000F800000007000078000000
0000F00000000E0000F0000000
0001E00000000E0001E0000000
0003E00000001C0003C0000000
0007C00000001C000780000000
0007800000001C001F00000000
000F8000000038003E00000000
000F0000000038007C00000000
001F000000007001F000000000
003E000000007007E000000000
003E00000000701F8000000000
007C00000000E07E0000000000
007C00000000E3F80000000000
007800000001DFE00000000000
00F800000001FFE00000000000
00F800000003FFF00000000000
00F000000003E0780000000000
01F000000007C03C0000000000
01F000000007801C0000000000
01F00000000F001E0000000000
01F00000000F000E0000000000
01E00000031E000E0000000000
01E00000071E000E0000000000
01F000000E3C000F0000000000
01F000001E3C00070000000000
01F000003C78000700001FE000
00F000007870000700003FF800
00F80000F0F000078000FCFC00
00FC0003E1E000078001E03E00
007E000F81E000078001C00E00
003FC03F03C000038003800700
001FFFFE07800003C003000700
000FFFF80F800003C003000380
0007FFC00F000003C002000380
000038001E006001E000000380
000000003C00E001E000000380
000000007801C001E000000380
00000000F003C000F000000380
00000001E0078000F000000380
00000007C00F0000F800000700
0000000F001E00007C00000700
0000001E007C00003C00000E00
0000007C01F000003E00000E00
000007F80FE000001F80001C00
3FFFFFF1FF8000000FC0003C00
FFFFFFFFFC00000007F000F800
FFFFFFFFC000000003FE07F000
7FFFFFF00000000000FFFFE000
0000000000000000007FFF8000
00000000000000000007FC0000
ENDCHAR
STARTCHAR 0053
ENCODING 83
SWIDTH 1211 0
DWIDTH 63 0
BBX 65 75 4 -8
BITMAP
000000000001FE0000
00000000000FFFC000
00000000001FDFF000
00000000007C00F800
0000000000F8007C00
0000000001E0003E00
0000000003E0001E00
0000000003C0000F00
000000000780000F00
000000000780000F00
000000000F00000780
000000000F00000780
000000000F00000700
000000001F00180700
000000001F00380700
000000001F00700700
000000001F00700F00
000000001F00700E00
000000001F00701E00
000000000F00303C00
000000000F803FF800
000000000F801FF000
000000000F80078000
0000000007C0000000
0000000007C0000000
0000000007E0000000
0000000003F0000000
0000000003F0000000
0000000001F8000000
0000000001F8000000
0000000000FC000000
0000000000FC000000
00000000007E000000
00000000007E000000
00000000003F000000
00000000001F800000
00000000001F800000
00000000000FC00000
00000000000FC00000
000000000007E00000
0003FFE00007E00000
001FFFFC0003E00000
007FE3FF0003F00000
01F8001FC001F00000
03E00003E001F80000
0F800001F000F80000
1E0000007800F80000
1C0000003C00780000
380000001C007C0000
780000000E007C0000
700000000E003C0000
7000000007003C0000
E000000007003C0000
E000000007003C0000
E000000007003C0000
E000000007003C0000
E000000007003C0000
C00000000700780000
E00000000600780000
E00000000E00780000
E00000001C00F00000
E00000003800F00000
700000007001E00000
700000000001E00000
780000000003C00000
380000000007800000
3C000000000F800000
1E000000003F000000
0F800000007E000000
07C0000003F8000000
03F000000FF0000000
00FF0000FFC0000000
003FFFFFFE00000000
000FFFFFF000000000
0001FFFE0000000000
ENDCHAR
STARTCHAR 0054
ENCODING 84
SWIDTH 1173 0
DWIDTH 61 0
BBX 102 97 3 -28
BITMAP
000000000000000000000007C0
00000000000000000000001FF0
00000000000000000000003038
0000000000000000000000000C
0000000000000000000000000C
0000000000000000000000000C
0000000000000000000000000C
000000000000003FFF0000000C
00000000000003FFFFF000000C
0000000000001FFFFFFE00001C
000000000000FF80007FC00038
000000000007F800001FF800F0
00000000001FC000003FFFFFE0
00000000007F000000FE3FFF00
0000000001F8000001E000E000
0000000007E000000780000000
000000000F8000000F00000000
000000003F0000001E00000000
00000000FC0000003C00000000
00000001F00000007800000000
00000003C0000000F000000000
0000000F80000001E000000000
0000001E00000001C000000000
0000003C000000038000000000
000000F8000000070000000000
000001F0000000070000000000
000003C00000000E0000000000
000007800000000E0000000000
00000F000000001C0000000000
00001E000000003C0000000000
00003C00000000380000000000
00007800000000700000000000
0000F000000000700000000000
0001E000000000F00000000000
0003E000000000E00000000000
0007C000000001E00000000000
000F8000000001C00000000000
000F0000000001C00000000000
001E0000000003800000000000
003E0000000003800000000000
007C0000000007000000000000
00780000000007000000000000
00F8000000000E000000000000
00F0000000000E000000000000
01E0000000000E000000000000
03E0000000001C000000000000
03C0000000001C000000000000
07C00000000038000000000000
07800000000038000000000000
0F800000000038000000000000
0F000000000070000000000000
1F000000000070000000000000
1F0000000000E0000000000000
1E0000000000E0000000000000
3E0000000001C0000000000000
3E0000000001C0000000000000
3C0000000001C0000000000000
3C000000000380000000000000
7C000000000380000000000000
7C000000000700000000000000
78000000000700000000000000
78000000000E00000000000000
780000FE001E00000000000000
F80001FF001C00000000000000
F80003FF003C00000000000000
F80007FF007800000000000000
F00007FF007000000000000000
F000067F00F000000000000000
F0000E3E01E000000000000000
F0000E1C03C000000000000000
F0000E00078000000000000000
F00006001F0000000000000000
F80007007C0000000000000000
F80007C3F80000000000000000
F80003FFE00000000000000000
780001FF800000000000000000
78000010000000000000000000
78000000000000000000000000
7C000000000000000000000000
7C000000000000000000000000
7C000000000000600000000000
3E000000000000C00000000000
3E000000000001C00000000000
3F000000000003800000000000
1F00000000000F000000000000
1F80000000001E000000000000
0FC0000000003C000000000000
07E000000000F8000000000000
07F000000001E0000000000000
03F800000007C0000000000000
01FE0000003F00000000000000
00FFC00000FE00000000000000
003FF80007F800000000000000
001FFFE1FFC000000000000000
0003FFFFFF0000000000000000
00007FFFF00000000000000000
000000FC000000000000000000
ENDCHAR
STARTCHAR 0055
ENCODING 85
SWIDTH 1615 0
DWIDTH 84 0
BBX 77 75 12 -8
BITMAP
000000000001FFE00000
00000000003FFFF00000
0000000001FE03E00000
000000000FE00F800000
000000007E003E000000
00000001F80078000000
00000007C001E0000000
0000001F0003C0000000
0000003C000780000000
000000F8000F00000000
000003E0001E00000000
00000780003C00000000
00001F0000780000FE00
00003E0000F00003FF80
0000780001E00007FFC0
0000F00003C0000F03C0
0003E0000780001E01E0
0007C0000F00003800E0
000F80000E00007000F0
001F00001C00007000F0
003E00003C0000E00070
007C0000780001C00078
00780000700001C00078
00F00000E00001800078
01E00001E00003800078
03C00001C00003000078
03C00003800007000078
07800003800007000078
0F800007000007000078
0F00000F000006000078
1F0003FE000006000078
1E000FFE0000060000F8
3E001F3F0000060000F8
3C00183F8000060000F0
7C003039C000060000F0
7C003070E000071800F0
7C002070700007B801F0
F80000E0700003F001E0
F80000E0300003E001E0
F80001C03800000003E0
F80001C03800000003C0
F80001801800000003C0
F8000380180000000780
F0000380180000000780
F0000700180000000F00
F8000700180000000F00
F8000700380000001E00
F8000700380000001E00
F8000600300000003C00
FC000E00700000007C00
FC000E00600000007800
7E000E00E0000000F000
7E000E01C0000001F000
3F000E0380000001E000
3F800E0F00000003C000
1FE00E3E00000007C000
0FF80EFC0000000F8000
07FF8FF80000001F0000
01FFFFE00000001E0000
007FFF000000003C0000
0007FE00000000780000
00000E00000000F00000
00000F00000001E00000
00000700000007C00000
0000070000000F800000
0000078000001F000000
0000038000003E000000
000003C00000F8000000
000001E00001F0000000
000000F00007E0000000
0000007C001F80000000
0000003F00FE00000000
0000001FFFF800000000
00000007FFE000000000
00000000FC0000000000
ENDCHAR
STARTCHAR 0056
ENCODING 86
SWIDTH 1250 0
DWIDTH 65 0
BBX 77 81 9 -14
BITMAP
00000000000001800000
000000000001FFF80000
00000000001FFFF00000
0000000001FE07C00400
0000000007E00F007FC0
000000001F003C00FFE0
000000007C007801C1F0
00000001F000E0038070
00000003C001C0030078
0000000F000380030038
0000003E000700030038
00000078000E0003D838
000000F0001C0001F838
000003E000380001F038
00000780007800000038
00000F0000F000000038
00003E0001E000000038
00007C0003C000000070
0000F000038000000070
0001E000078000000070
0003C0000F00000000E0
000780000E00000000E0
000F00001E00000001C0
001E00003C00000001C0
003E0000380000000380
007C0000780000000780
00780000700000000700
00F00000F00000000E00
01E00000E00000001E00
03E00001E00000003C00
03C00001C00000007800
07800003C0000000F000
0F80000380000001E000
0F00004780000003C000
1F0007FF000000078000
1E000FFF0000000F0000
3E001C0F8000001E0000
3C00180F8000003C0000
7C00101DC00000F80000
7800001DC00001E00000
7800001CC00003C00000
F8000038C0000F800000
F8000038C0001F000000
F8000038C0007C000000
F0000079C000F8000000
F0000071C003E0000000
F00000718007C0000000
F0000073801F00000000
F00000E3803E00000000
F00000E700FC00000000
F80000EF01F000000000
F80000EE03E000000000
F80000FC0F8000000000
7C0001F81F0000000000
7C0001F07C0000000000
3E0003E0F80000000000
3F0007C1E00000000000
1FC01FC7C00000000000
0FF9FDCF800000000000
07FFF1DE000000000000
01FF83BC000000000000
000003F8000000000000
000003E0000000000000
000003C0000000000000
00000780000000000000
00000F00000000000000
00003E00000000000000
00007E00000000000000
0000FC00000000000000
0003FC00000000000000
0007DC00000000000000
00079800000000000000
000F3800000000000000
001E3800000000000000
001E3800000000000000
001C7000000000000000
001CE000000000000000
001DE000000000000000
001FC000000000000000
001F8000000000000000
001E0000000000000000
ENDCHAR
STARTCHAR 0057
ENCODING 87
SWIDTH 1865 0
DWIDTH 97 0
BBX 93 81 9 -14
BITMAP
000000000000018000000000
000000000001FFF800000000
00000000001FFFF000000000
0000000001FE07C000000000
0000000007E00F0000000000
000000001F003C0000000000
000000007C00780000000000
00000001F000E00000000000
00000003C001C00000000000
0000000F0003800000000000
0000003E000700000000FE00
00000078000E00000001FF80
000000F0001C00000003FF80
000003E000380000000783C0
0000078000780000000F01E0
00000F0000F00000001E00E0
00003E0001E00000001C00F0
00007C0003C00000003800F0
0000F00003800000003000F0
0001E0000780000000700070
0003C0000F00000000600078
000780000E00000000E00078
000F00001E00000000E00078
001E00003C00000000C00078
003E00003800000001C00078
007C00007800000001C00078
007800007000000001800078
00F00000F000000001800078
01E00000E000000001800078
03E00001E000000001800078
03C00001C0000000018000F8
07800003C0000000018000F0
0F80000380000000018000F0
0F0001E780000000018000F0
1F0007FF000000F801CC00F0
1E000F3F000003FC01FC01F0
3E001C0F80000FBE00F801E0
3C00180F80001E1E007001E0
7C00101DC000781E000001E0
7800001DC000F01C000003C0
7800001CC001E07C000003C0
F8000038C00381F800000780
F8000038C00387F000000780
F8000038C0071FC000000780
F0000079C00E7F0000000F00
F0000071C00DFC0000000F00
F0000071801FF00000001E00
F0000073803F800000001E00
F00000E3803E000000003C00
F00000E700FC000000003C00
F80000EF03F8000000007800
F80000EE07F0000000007800
F80000FC0F7000000000F000
7C0001F83CE000000000F000
7C0001F078E000000001E000
3E0003E1F0C000000003C000
3F0007C3C0C0000000078000
1FC01FC781C0000000078000
0FF9FDDF01C00000000F0000
07FFF1BC01C00000001E0000
01FF83F801C00000003C0000
000003F001C00000007C0000
000003E001C0000000780000
000007C001C0000000F00000
00000F8001C0000001E00000
00001F0001E0000007C00000
00007E0000E000000F800000
0000FE0000F000001F000000
0001EE0000F000003E000000
0003CC0000780000FC000000
00079C00003C0003F0000000
00071C00003F000FE0000000
000E3800001FE0FF80000000
001E38000007FFFE00000000
001C30000003FFF800000000
0018700000003F8000000000
0038E0000000000000000000
003DE0000000000000000000
001FC0000000000000000000
001F80000000000000000000
001E00000000000000000000
ENDCHAR
STARTCHAR 0058
ENCODING 88
SWIDTH 2000 0
DWIDTH 104 0
BBX 87 72 13 -5
BITMAP
0007F00000000000000000
001FFE0000000000000000
007FFF000000000001FC00
00FC1FC0000000000FFE00
01F007E0000000003FFF00
01E001F000000000FFFF00
03C000F800000001FFFE00
0380007C00000007FFFE00
0780003E0000000FC00000
0700001E0000001F000000
0700001F0000003C000000
0F00000F80000078000000
0F000007C00000F0000000
0E000007C00001E0000000
07000003E00001C0000000
07000003E0000380000000
07000001F0000780000000
07000000F8000F00000000
07800000F8000E00000000
03C000007C001C00000000
01E000007C003C00000000
00F000003E003800000000
007FE0003E007000000000
003FC0001F007000000000
000000001F00E000000000
000000000F81E000000000
000000000F81C000000000
0000000007C3C000000000
0000000007C38000000000
0000000007E70000000000
0000000003E70000000000
0000000003FE0000000000
0000000001FE0000000000
0000000001FC0000000000
0000000000FC0000000000
0000000000FC0000000000
00000000007C0000000000
0000000000FE0000000000
0000000001FE0000000000
0000000001FF0000000000
0000000003DF0000000000
00000000079F8000000000
00000000070FC00003FE00
000000000F0FC0000FFF80
000000000E07E0001FFFE0
000000001C07E0003E01F0
000000003C03F000380070
000000003801F000700038
000000007001F80070003C
00000000F000F800E0001C
00000000E000FC00E0001C
00000001C0007C00C0001C
03F00003C0007E00C0000E
0FF8000780003F00C0000E
1F3C000700003F00E0000E
380C000E00001F80E0000C
7800001E00000F8070001C
7000003C00000FC030001C
60000038000007E000001C
E0000070000003E000001C
E00000F0000003F0000038
E00001E0000001F8000038
E00003C0000000F8000070
E0000780000000FC000070
E0000F000000007E0000E0
E0001E000000003F0001E0
70003C000000001FC007C0
7800F80000000007F81F80
3E07F00000000003FFFF00
1FFFC00000000000FFFC00
0FFF80000000000007E000
01F8000000000000000000
ENDCHAR
STARTCHAR 0059
ENCODING 89
SWIDTH 1519 0
DWIDTH 79 0
BBX 110 96 6 -28
BITMAP
000000000000000000000001FFC0
00000007000000000000000FFFF0
000001FFFC0000001C00007FC1F8
00000FFFFF8000003C0001F80038
00001FE07FE00000780007E0003C
00007E0003F80000F8001F80003C
0000F80000FC0001F8003E000038
0001E000003E0003F800F8000038
0003C000001F0007F801F0000078
00078000000F80077C03C00000F0
000700000007C00E7C07800001E0
000F00000003E01E3E0F000007C0
000E00000001F03C3F9E00001F80
000E00000000F8381FFC0000FE00
001C000000007C700FFFE3FFF800
001C000000007CF007FFFFFFE000
001C000000003EE003FFFFFF0000
0018000000001FC001FFFFF00000
0018000000001FC003C000000000
0038000000000FC0038000000000
00380000000007C0070000000000
0018000000000FC00F0000000000
0018000000000FE01E0000000000
0018000000001FE01C0000000000
001C000000001DF03C0000000000
001C0000000039F0780000000000
001C0000000038F8700000000000
000E0000000070F8F00000000000
000E00000000707CE00000000000
000700000000E07DC00000000000
000700000001C03DC00000000000
000380000001C03F800000000000
0001C0000003803F800000000000
0001E0000003801F000000000000
0000F0000007001F000000000000
00007C000007000F800000000000
00001F00000E001F800000000000
000007F8000E001F800000000000
000001FF800C003FC00000000000
0000000F001C003BC00000000000
00000000001C0073C00000000000
0000000000380073E00000000000
0000000000380071E00000000000
00000000003000E1E00000000000
00000000007000E1F00000000000
00000000007001C0F00000000000
00000000007001C0F00000000000
0000000000E00380F00000000000
0000000000E00380F00000000000
0000000000E00780F00000000000
0000000000E00700F00000000000
0000000000E00700F00000000000
0000000001E00E00F00000000000
0000000001E00E00F00000000000
0000000001E01E00F00000000000
0000000001E01C00F00000000000
0000000001E01C01F00000000000
0000000001E03C01E00000000000
0000000000E03801E00000000000
0000000000E03803E00000000000
0000000000F07003C00000000000
0000000000707007C00000000000
000000000078700F800000000000
00000000003EE03F000000000000
00000000003FE3FE000000000000
00000000000FFFFC000000000000
000000000007FFF0000000000000
000000000001FF00000000000000
000000000001C000000000000000
0000000000038000000000000000
0000000000038000000000000000
0000000000070000000000000000
0000000000070000000000000000
00000000000E0000000000000000
00000000001E0000000000000000
01F80000001C0000000000000000
0FFFC000003C0000000000000000
1FFFF00000780000000000000000
3C01FC0000700000000000000000
70003F0000E01800000000000000
60000FC001E07E00000000000000
E00003F003C1FF00000000000000
E00000FC0F83C380000000000000
E000007E1F030180000000000000
E000001FBE0101C0000000000000
E000000FFC0001C0000000000000
F0000003F00001C0000000000000
78000007F80001C0000000000000
7C00000FFC0001C0000000000000
3E00007F3F0001C0000000000000
1FC007FE1F800380000000000000
07FFFFF80FE00780000000000000
03FFFFC003F81F00000000000000
003FFC0001FFFE00000000000000
00000000007FFC00000000000000
00000000000FF000000000000000
ENDCHAR
STARTCHAR 005A
ENCODING 90
SWIDTH 1942 0
DWIDTH 101 0
BBX 82 75 14 -8
BITMAP
0000100000000000000000
0003FFF000000000000000
001FFFFF00000000000000
007FFFFFF00000001C0000
00FC007FFE000001FF0000
01F0000FFF800007FF8000
03C00001FFF0001F838000
078000003FFF003E038000
0F00000007FFE07C0F0000
0E00000001FFFCF01E0000
1E000000003FFFE0FC0000
1C000C000007FFFFF80000
1C003F000000FFFFE00000
1C000F0000000FFF000000
3800038000000F00000000
3800038000001E00000000
3800038000003C00000000
3800038000007800000000
3C00070000007000000000
1C0007000000E000000000
1C000E000001E000000000
0E003E000003C000000000
0F807C0000078000000000
07FFF00000070000000000
03FFE000000E0000000000
007F0000001E0000000000
00000000003C0000000000
0000000000380000000000
0000000000700000000000
0000000000F00000000000
0000000001E00000000000
0000000001C00000000000
0000000003C00000000000
0000000007800000000000
000000000F000000000000
000000000E000000000000
000000001E000000000000
000000003C000000000000
0000000038000000000000
0000000070000000000000
00000000F0000000000000
00000001E0000000000000
00000001C0000000000000
0000000380000000000000
0000000780000000000000
0000000F00000000FF8000
0000000E00000003FFE000
0000001C0000000FFFF800
0000003C0000001E00FC00
0000007800000078003E00
0000007000000070001F00
000000E0000000E0000F00
000001E0000001C0000780
000003C0000001C0000780
0000038000000380000380
00000700000003800003C0
00000F00000003800003C0
0001FE00000003800003C0
001FFFF0000003800003C0
007FFFFE000003802003C0
01FE7FFFC00001C06003C0
03F0707FF80001E1E00380
07C0E00FFE0000FFC00780
0F01E001FFC0003F000780
1E03C0007FF00000000F00
3C0780001FFC0000000F00
780F000007FF0000001E00
781E000000FFC000007C00
783C0000003FF80000FC00
F0F80000000FFE0003F800
FFF000000003FFE01FE000
FFC000000000FFFFFFC000
7F80000000003FFFFF0000
7E000000000007FFFC0000
000000000000003F800000
ENDCHAR
STARTCHAR 005F
ENCODING 95
SWIDTH 3461 0
DWIDTH 180 0
BBX 164 53 9 -37
BITMAP
00000000000000000000000003FF00000000000000
0000000000000000000000000FFFC0000000000000
0000000000000000000000003F07F0000000000000
0000000000000000000000007800F8000000000000
00000000000000000000000070003C000000000000
000000000000000000000000F0001E000000000000
0000000000007FC000000000E0000F00000FC00000
000000000007FFFC00000000E000078003FFFE0000
00000000003FFFFF80000000C00003803FFFFFC000
0007FF0000FF003FE0000000000003C0FF0003F000
003FFFE003F00007F8000000000001C7F00000F800
00FF83F807C00000FE000000000001FF8000003C00
01F8003E0F0000003F000000000000FE0000001E00
03C0000FBE0000001FC00000000001F80000000F00
0F800003F800000007E00000000007F00000000780
0F000000F800000003F0000000001F7000000003C0
1E000000FC00000000F8000000007C7800000003C0
3C000001FE0007F8007C00000000F03800000001E0
78000003CF803FFE003E0007E003C03C00000001E0
7000000387C07FFF801F007FFC0F801C00000000F0
7000000701E1F81FE00F81FFFF1E001C00000000F0
F000000700F3E003F007C7F01FF8000E00000000F0
E000000E007F8001F803EF8003F0000E07FC0000F0
E000000E003F0000F801FE0003E0000F3FFF0000F0
E000000E001E00007C00FC0007F00007FF7FC000F0
E000000C003F00003E00F8001E700007F007E000F0
E000000C007780003E00FC007C700007C001F000F0
E000000C00E3C0001E00FE00F070000F8000F800F0
F000000C01C1E0001F01FF03E070001FC0007C00F0
7000000C0380F0001F01CF8780700039C0003C00E0
7800000C0F007C000F03CF9F00700071E0001E00E0
3800000E1E001E000F0387FC007000E0E0001E01C0
3C00000E3C000F000F0383F800F001C070000E01C0
1E000006F80007C00F0381F000E003807C000F0380
0F000007E00001F00F0787F803E007001E000F0700
07C00007C000007E0F07BFFF9FC00F000FC00F1E00
03F8003FC000001FEF07FE7FFF800E0003F80F7C00
00FFFFFFC0000007FFFFF81FFF001C00F8FFFFF000
003FFFF0E0000000FFFF8003F8003801FC0FFFC000
0003FE00F00000003FFF8000000070038600070000
00000000780000007E0380000000F00736000F0000
000000003C000000FC03C0000001E0067E000F0000
000000001F000001F803C0000003C0067E001E0000
000000000F800003F001E0000007800E7E001E0000
0000000003F0000FE001F000000F00063C003C0000
0000000001FE007FC000F000003E00070000780000
00000000007FFFFF0000FC00007C00070000F00000
00000000000FFFF800007E0001F00003C003E00000
000000000001FFC000003F8007E00001F00FC00000
000000000000000000001FF03FC00000FFFF000000
000000000000000000000FFFFF0000007FFC000000
0000000000000000000003FFFC00000003C0000000
0000000000000000000000FFF00000000000000000
ENDCHAR
STARTCHAR 0061
ENCODING 97
SWIDTH 692 0
DWIDTH 36 0
BBX 38 22 -2 0
BITMAP
001F000000
003F000000
00FF000000
01E7000000
01C70003E0
03870003F8
07870001F8
0F0E00001C
0E0E00001C
1C0E00001C
3C1C00001C
381C00001C
783C00001C
703C000038
F078000078
E0F80000F0
E1F80001E0
E3FC000FC0
FFBF007F80
FF1FFFFE00
7E0FFFF800
3C07FF8000
ENDCHAR
STARTCHAR 0062
ENCODING 98
SWIDTH 365 0
DWIDTH 19 0
BBX 99 67 -2 1
BITMAP
0000000000000001FFFC000000
000000000000007FFFFFE00000
00000000000003FFFFFFFC0000
0000000000001FFFFFFFFF0000
000000000000FFF00000FFC000
000000000003FE0000000FF000
00000000000FF000000001FC00
00000000003F80000000007E00
00000000007E00000000001F00
0000000001F800000000000F80
0000000003E000000000000780
000000000FC0000000000003C0
000000001F00000000000001C0
000000007C00000000000001E0
00000000F800000000000000E0
00000001F000000000000000E0
00000003C000000000000000E0
000000078000000000000000E0
0000000F0000000000000000E0
0000001E0000000000000000E0
0000003C0000000000000000C0
000000780000000000000001C0
000000F00000000000000001C0
000001E0000020000000000380
000001C0000030000000000700
000003C0000030000000000F00
00000780000018000000001E00
00000F0000001C000000003C00
00000E0000000E000000007000
00001C0000000700000001E000
00003C00000003C0000007C000
00007800000000F000003F0000
000070000000007F0003FC0000
0000F0000000000FFFFFE00000
0001E00000000001FFFE000000
0001C000000000000000000000
0003C000000000000000000000
00078000000000000000000000
00078000000000000000000000
000F0000000000000000000000
000E0000000000000000000000
001E0000000000000000000000
001C0000000000000000000000
003C0000000000000000000000
00780000000000000000000000
007BC000000000000000000000
00F7C000000000000000000000
00FFC000000000000000000000
01FFC000000000000000000000
01F1C000000000000000000000
03E3C000000000000000000000
07C3C000000000000000000000
07838000000000000000000000
0F078000000000000000000000
0F078000000000000000000000
1E070000000000000000000000
1C0F0000000000000000000000
3C0E0000000000000000000000
381E0000000000000000000000
783C0000000000000000000000
703C0000000000000000000000
70780000000000000000000000
70F00000000000000000000000
F9E00000000000000000000000
7FC00000000000000000000000
7F800000000000000000000000
3E000000000000000000000000
ENDCHAR
STARTCHAR 0063
ENCODING 99
SWIDTH 326 0
DWIDTH 17 0
BBX 18 22 -1 0
BITMAP
003F00
007F80
00F380
01C180
038000
070000
0F0000
0E0000
1C0000
3C0000
380000
780000
700000
F000C0
F001C0
E00380
E00700
F01E00
FEFC00
FFF800
7FF000
1FC000
ENDCHAR
STARTCHAR 0064
ENCODING 100
SWIDTH 346 0
DWIDTH 18 0
BBX 94 67 -78 0
BITMAP
000007FFFFC0000000000000
0000FFFFFFFF000000000000
0003FFFFFFFFF00000000000
001FFF0000FFFE0000000000
003F80000003FFC000000000
00FC000000001FF000000000
01E00000000003FE00000000
03C000000000007F80000000
070000000000001FE0000000
0E00000000000007F0000000
1C00000000000001FC000000
38000000000000007F000000
38000000000000001F800000
700000000000000007E00000
700000000000000003F00000
E00000000000000000FC0000
E000000000000000007E0000
E000000000000000001F0000
E000000000000000000F8000
C0000000000000000003C000
C0000000000000000001E000
E0000000000000000000F000
E00000000000000000007800
E00000000000000000003C00
600000000000600000001E00
700000000000E00000000E00
780000000000C00000000F00
380000000001C00000000780
1C0000000003800000000380
1E00000000078000000003C0
0F800000000F0000000001C0
03E00000003C0000000000E0
01F8000000F80000000000E0
007F800007E0000000000070
001FFF01FF80000000000070
0001FFFFFC00000000000070
00000FFFC000000000000038
000000000000000000000038
000000000000000000000038
000000000000000000000038
00000000000000000000001C
00000000000000000000001C
00000000000000000000001C
00000000000000000000001C
00000000000000000000001C
0000000000000000000001FC
0000000000000000000007FC
000000000000000000000F1C
000000000000000000001E1C
00000000000000000000381C
00000000000000000000781C
00000000000000000000F01C
00000000000000000001E03C
00000000000000000001C038
00000000000000000003C038
000000000000000000038038
000000000000000000038078
000000000000000000078070
0000000000000000000780F0
0000000000000000000780E0
0000000000000000000781E0
0000000000000000000783C0
00000000000000000007EFC0
00000000000000000007FF80
00000000000000000003FF00
00000000000000000003FE00
00000000000000000001F800
ENDCHAR
STARTCHAR 0065
ENCODING 101
SWIDTH 346 0
DWIDTH 18 0
BBX 27 33 -1 0
BITMAP
00000380
000007C0
00000FE0
00000FE0
000007E0
000007E0
000000E0
000000C0
000000C0
000001C0
00000180
003F8300
007F8700
00FFDE00
01C3FC00
0383F800
0703E000
0E07C000
1E1F0000
1C3E0000
38F80000
3BE00000
7F800000
7F000000
7C000000
F8000000
F0030000
F0070000
F01E0000
F87C0000
FFF80000
7FE00000
3F800000
ENDCHAR
STARTCHAR 0066
ENCODING 102
SWIDTH 307 0
DWIDTH 16 0
BBX 74 83 -34 -30
BITMAP
00000000000000000780
00000000000000001FC0
00000000000000003FC0
0000000000000000FFC0
0000000000000001FFC0
0000000000000003FF80
0000000000000007FE00
000000000000000FF000
000000000000001F8000
000000000000003E0000
000000000000007C0000
00000000000000F80000
00000000000001E00000
00000000000003C00000
00000000000007800000
0000000000000F000000
0000000000000E000000
0000000000001C000000
0000000000003C000000
00000000000078000000
00000000000070000000
000000000000E0000000
000000000001C0000000
000000000001C0000000
00000000000380000000
00000000000700000000
00000000000700000000
00000000000E00000000
00000000001C00000000
00000000001C00000000
00000000003800000000
000000003FFFFE000000
000000003FFFFE000000
000000003FFFFC000000
00000000007000000000
0000000000E000000000
0000000000E000000000
0000000001C000000000
0000000001C000000000
00000000038000000000
00000000038000000000
00000000070000000000
00000000070000000000
000000000E0000000000
000000000E0000000000
000000001C0000000000
000000001C0000000000
00000000380000000000
00000000380000000000
00000000700000000000
00000000700000000000
00000000E00000000000
00000000E00000000000
00000001C00000000000
00000001C00000000000
00000001800000000000
00000003800000000000
00000003000000000000
00000007000000000000
0000000E000000000000
0000000E000000000000
0000001E000000000000
0000001C000000000000
0000003C000000000000
00000038000000000000
00000078000000000000
000000F0000000000000
000000E0000000000000
000001E0000000000000
000003C0000000000000
00000780000000000000
00000F80000000000000
00001F00000000000000
00003E00000000000000
00007C00000000000000
0001F800000000000000
000FF000000000000000
1FFFE000000000000000
7FFFC000000000000000
7FFF0000000000000000
FFFE0000000000000000
FFF80000000000000000
7FC00000000000000000
ENDCHAR
STARTCHAR 0067
ENCODING 103
SWIDTH 326 0
DWIDTH 17 0
BBX 44 58 -28 -35
BITMAP
0000000001E0
0000000007F0
000000001FF0
000000003EF0
0000000078E0
00000000F0E0
00000001E0E0
00000001C0E0
0000000381C0
0000000701C0
0000000F03C0
0000000E0380
0000001C0780
0000001C0F00
0000003C1F00
0000003C3F00
0000003FFE00
0000003FFE00
0000003FBC00
0000001E1C00
000000003800
000000003800
00000000F800
0000000FF000
0000007FF000
000003FE6000
00000FE0E000
00003F01C000
0000FC01C000
0003F0038000
0007C0070000
000F00070000
001E000E0000
003C001E0000
0078001C0000
00F000380000
01E000780000
03C000700000
078000E00000
070001E00000
0F0003C00000
1E0007800000
1C0007000000
3C000F000000
38001E000000
78003C000000
780078000000
7000F0000000
7001E0000000
7003C0000000
F00780000000
F00F00000000
F03E00000000
78FC00000000
7FF000000000
7FE000000000
3F8000000000
1E0000000000
ENDCHAR
STARTCHAR 0068
ENCODING 104
SWIDTH 442 0
DWIDTH 23 0
BBX 97 67 -2 0
BITMAP
000000000000000FFFF0000000
00000000000001FFFFFF000000
0000000000001FFFFFFFF00000
0000000000007FFFFFFFFC0000
000000000003FFC00003FF0000
00000000000FF80000003FC000
00000000003FC000000007E000
0000000000FE0000000001F000
0000000003F80000000000F800
0000000007E000000000003C00
000000001F8000000000001E00
000000003E0000000000000F00
00000000FC0000000000000700
00000001F00000000000000700
00000003E00000000000000300
00000007C00000000000000380
0000000F000000000000000380
0000001E000000000000000380
0000003C000000000000000380
00000078000000000000000300
000000F0000000000000000700
000001E0000000000000000700
000003C0000000000000000E00
00000780000100000000000E00
00000F00000180000000001C00
00000E000000C0000000003800
00001C000000E0000000007000
00003C0000007000000000E000
0000780000003800000003C000
0000700000001C0000000F8000
0000E00000000F0000003E0000
0001E000000007C00000FC0000
0003C000000001F8000FE00000
000380000000007FFFFF800000
0007800000000007FFF0000000
00070000000000000000000000
000E0000000000000000000000
001E0000000000000000000000
001C0000000000000000000000
003C0000000000000000000000
00380000000000000000000000
00780000000000000000000000
00700000000000000000000000
00F00000000000000000000000
00E00000000000000000000000
01C3E000000000000000000000
01CFF000000000000000000000
03DFF000000000000000000000
03F9F000000000000000000000
07E0E000000000000000000000
07C0E000000000000000000000
0781E000000000000000000000
0F01C000000000000000000000
0E03C000000000000000000000
1E038000000000000000000000
1C038000000000000000000000
3C070000000000000000000000
38070000000000000000000000
380E0000000000000000000000
700E0000000000000000000000
701E0000000000000000000000
701C0000000000000000000000
F01C1800000000000000000000
E03C3800000000000000000000
E01EF000000000000000000000
E01FE000000000000000000000
C00F8000000000000000000000
ENDCHAR
STARTCHAR 0069
ENCODING 105
SWIDTH 653 0
DWIDTH 34 0
BBX 77 67 -23 -2
BITMAP
00000100000000000000
0001FFFFF00000000000
001FFFFFFF0000000000
007F80007FE000000000
01F0000003FC00000000
07C00000003F0007F000
0F0000000007C03FFC00
1E0000000001F0FFFF00
1C000000000079F00F80
3800000000003F8003C0
7000000000001F0001E0
7000000000003F8000F0
6000000000007FC00070
E00000000001F1E00070
E00000000003E0F00038
E0000000000F80700038
E0000000003F00380038
60000000007C00380038
7000000001F0001C0038
7800000007E0001C0038
380000003F80000C0070
1E000000FE00000E0070
0F000007F000000E00F0
07E0007FC000000E00E0
01FFFFFE0001000601E0
007FFFE00001800603C0
0000F0000001E0060780
000000000000F8061F00
0000000000007F87FE00
0000000000001FFFF800
00000000000003FFC000
00000000000000060000
00000000000000060000
000000000000000E0000
000000000000000E0000
000000000000000E0000
000000000F00000C0000
000000000F00000C0000
000000000F00001C0000
000000000E00001C0000
00000000000000180000
00000000000000380000
00000000000000380000
00000000000000300000
00000003C00000700000
00000007C00000600000
0000000F800000E00000
0000001F000001C00000
0000003C000001C00000
00000078000003800000
00000070000007000000
000000F0000007000000
000000E000000E000000
000001E000001C000000
000001C0000038000000
000001C0000078000000
000003800000F0000000
000003800001E0000000
000003800007C0000000
00000380000F00000000
00000380003E00000000
000003C0007C00000000
000003C003F000000000
000003F00FC000000000
000003FFFF0000000000
000001FFFC0000000000
000000FFE00000000000
ENDCHAR
STARTCHAR 006A
ENCODING 106
SWIDTH 269 0
DWIDTH 14 0
BBX 54 67 -38 -36
BITMAP
0000000000007C
0000000000007C
0000000000007C
00000000000038
00000000000000
00000000000000
00000000000000
00000000000000
000000000003F8
00000000003FF0
00000000003FC0
000000000003C0
000000000003C0
00000000000380
00000000000780
00000000000780
00000000000700
00000000000F00
00000000000F00
00000000000E00
00000000001E00
00000000001E00
00000000001C00
00000000001C00
00000000003800
00000000003800
00000000007800
00000000007000
00000000007000
0000000000E000
0000000000E000
0000000001C000
0000000001C000
00000000038000
00000000038000
00000000070000
000000000F0000
000000000E0000
000000001E0000
000000001C0000
00000000380000
00000000781000
00000000703000
00000000E03000
00000001E03000
00000003C03000
00000003803000
00000007006000
0000000F006000
0000001E00C000
0000003C00C000
00000078018000
000000F0038000
000001E0070000
000003C00E0000
000007801C0000
00000F00780000
00001E01F00000
00003C07C00000
0000F83F000000
001FF3FC000000
1FFFFFF0000000
7FFFFF00000000
FFFF0000000000
FFE00000000000
7F000000000000
18000000000000
ENDCHAR
STARTCHAR 006B
ENCODING 107
SWIDTH 423 0
DWIDTH 22 0
BBX 97 67 -1 0
BITMAP
000000000000000FFFF0000000
00000000000001FFFFFF800000
0000000000001FFFFFFFF00000
0000000000007FFFFFFFFC0000
000000000003FFC00003FF0000
00000000000FF80000003FC000
00000000003FC000000007E000
0000000000FE0000000001F800
0000000001F800000000007C00
0000000007E000000000003C00
000000001F8000000000001E00
000000003E0000000000000F00
000000007C0000000000000700
00000001F00000000000000700
00000003E00000000000000380
00000007C00000000000000380
0000000F000000000000000380
0000001E000000000000000380
0000003C000000000000000380
00000078000000000000000300
000000F0000000000000000700
000001E0000000000000000700
000003C0000000000000000600
00000780000080000000000E00
00000F00000080000000001C00
00000E000000C0000000003800
00001C000000E0000000007800
00003C0000007000000000F000
0000380000003800000003C000
0000700000001C000000078000
0000F00000000F0000003E0000
0001E000000007C00000FC0000
0001C000000001FC000FF00000
000380000000007FFFFF800000
0007800000000007FFF0000000
00070000000000000000000000
000F0000000000000000000000
000E0000000000000000000000
001C0000000000000000000000
003C0000000000000000000000
00380000000000000000000000
00780000000000000000000000
00700000000000000000000000
00E00000000000000000000000
00E00000000000000000000000
01C7E000000000000000000000
01CFE000000000000000000000
03BFE000000000000000000000
03F9E000000000000000000000
07E1E000000000000000000000
07C1E000000000000000000000
0F81C000000000000000000000
0F03C000000000000000000000
1E078000000000000000000000
1C1E0000000000000000000000
3DFC0000000000000000000000
39E00000000000000000000000
39C00000000000000000000000
79C00000000000000000000000
70C00000000000000000000000
70E00000000000000000000000
F0E00800000000000000000000
E0F01800000000000000000000
E0787000000000000000000000
E07FE000000000000000000000
E03FC000000000000000000000
C01F8000000000000000000000
ENDCHAR
STARTCHAR 006C
ENCODING 108
SWIDTH 250 0
DWIDTH 13 0
BBX 96 67 -2 0
BITMAP
000000000000000FFFE00000
00000000000001FFFFFF0000
0000000000001FFFFFFFE000
000000000000FFFFFFFFFC00
000000000003FFC00003FF00
00000000000FF80000003FC0
00000000003FC000000007E0
0000000000FE0000000001F0
0000000003F80000000000F8
0000000007E000000000003C
000000001F8000000000001E
000000003E0000000000000E
00000000FC0000000000000F
00000001F000000000000007
00000003E000000000000007
000000078000000000000007
0000001F0000000000000003
0000003E0000000000000003
0000007C0000000000000003
000000F00000000000000007
000001E00000000000000007
000001C00000000000000006
00000380000000000000000E
00000780000100000000000C
00000F00000180000000001C
00001E000000C00000000038
00001C000000C00000000070
0000380000006000000000E0
0000780000007800000003C0
0000F00000003C0000000F80
0000E00000000E0000003E00
0001C000000007C00001F800
0003C000000001F8000FE000
000380000000007FFFFF0000
0007000000000007FFF00000
000F00000000000000000000
000E00000000000000000000
001E00000000000000000000
001C00000000000000000000
003800000000000000000000
003800000000000000000000
007000000000000000000000
007000000000000000000000
00E000000000000000000000
00E000000000000000000000
01C000000000000000000000
01C000000000000000000000
038000000000000000000000
038000000000000000000000
070000000000000000000000
070000000000000000000000
0E0000000000000000000000
0E0000000000000000000000
1E0000000000000000000000
1C0000000000000000000000
3C0000000000000000000000
380000000000000000000000
380000000000000000000000
780000000000000000000000
700000000000000000000000
700000000000000000000000
F0E000000000000000000000
F1C000000000000000000000
F3C000000000000000000000
FF8000000000000000000000
FE0000000000000000000000
7C0000000000000000000000
ENDCHAR
STARTCHAR 006D
ENCODING 109
SWIDTH 788 0
DWIDTH 41 0
BBX 45 50 -7 -27
BITMAP
000007C1E1F0
00001FE7F3F0
00003FFFF7F0
000071FCFEF0
0000E0F8F870
0001C0F0F0F0
000380E0F0E0
000701E1E0E0
000E01C1E1E0
001C01C1C1C0
003803C3C3C0
003003838380
007007878780
00E007078780
01C00F070700
01800E0F0F00
03801E0F0E00
07001C1E1E00
06003C1E1E18
0E00383C1E30
1C00783C0FE0
1800703807C0
380000000000
300000000000
700000000000
700000000000
600000000000
E00000000000
E00000000000
C00000000000
C00000000000
C00000000000
C00000004000
C00000004000
C00000004000
C00000004000
E00000004000
E0000000C000
E0000000C000
F0000001C000
F00000018000
780000030000
7C0000070000
3E00000E0000
1F00001C0000
0FC000780000
07F001F00000
03FFFFC00000
00FFFF000000
000FF8000000
ENDCHAR
STARTCHAR 006E
ENCODING 110
SWIDTH 634 0
DWIDTH 33 0
BBX 38 50 -8 -27
BITMAP
000007E078
00000FF1FC
00003DF3FC
000070763C
0000E07C38
0001C07838
000380F078
000700F070
000E00E070
000E01E0F0
001C01C0E0
003803C1E0
007003C1C0
00600783C0
00E0078380
01C0070780
03800F0780
03801E0700
07001E0F04
06003C071C
0E003807F8
0C003803E0
1C00000000
1800000000
3800000000
3000000000
7000000000
7000000000
6000000000
6000000000
E000000000
E000000000
E000000020
E000000020
E000000020
E000000020
E000000020
7000000060
7000000060
70000000C0
78000000C0
3800000180
3C00000380
1E00000700
0F80000E00
07C0003C00
03F800F800
00FFFFE000
003FFF8000
0007FC0000
ENDCHAR
STARTCHAR 006F
ENCODING 111
SWIDTH 346 0
DWIDTH 18 0
BBX 125 44 -1 0
BITMAP
00000000000000780000000000000000
0000000001F000FC0007C00000000000
0000000003F800FE000FC00000000000
0000000003B801C6001CC00000000000
00000000071801C60038E00000000000
00000000071C01C60038E00000000000
000FF000071801C60038C00000000000
00FFFF80073800E60038C0000007FE00
07F8FFF007F0007C00398000003FFF80
0F8007FE03E0007C001F800001FFFFC0
1E0000FF87E0001C000E00000FFFFFE0
3800003FFEF0003F807F8001FFFF3FF0
70000007F87800F3FFFBF87FFFE007F0
E0000000003FFFC0FFE0FFFFFC0001F8
E0000000000FFF8000003FFF800000F8
C00000000001FC0000000000000000F8
C00000000000000000000000000000F0
E00000000000000000000000000000F0
E00000000000000000000000000001E0
E00000000000000000000000000001C0
70000000000000000000000000000180
3C000000000000000000000000000000
1FFE0000000000000000000000000000
07FF0000000000000000000000000000
007F8000000000000000000000000000
00F38000000000000000000000000000
01C18000000000000000000000000000
07818000000000000000000000000000
07038000000000000000000000000000
0E038000000000000000000000000000
1C038000000000000000000000000000
3C070000000000000000000000000000
38070000000000000000000000000000
700F0000000000000000000000000000
700E0000000000000000000000000000
F01E0000000000000000000000000000
E01C0000000000000000000000000000
E0380000000000000000000000000000
F0780000000000000000000000000000
F0F00000000000000000000000000000
F9E00000000000000000000000000000
FFC00000000000000000000000000000
7F800000000000000000000000000000
3E000000000000000000000000000000
ENDCHAR
STARTCHAR 0070
ENCODING 112
SWIDTH 442 0
DWIDTH 23 0
BBX 111 62 -89 -37
BITMAP
0000000000000000000000003E00
0000000000000000000000007C00
000000000000000000000000F000
000000000000000000000000FFC0
000000000000000000000000FFE0
000000000000000000000001FDE0
000000000000000000000001F0F0
000000000000000000000003E0F0
000000000000000000000007C0F0
00000000000000000000000780E0
00000000000000000000000F81E0
00000000000000000000001F03E0
00000000000000000000001F03C0
00000000000000000000000E0780
00000000000000000000000E0F00
00000000000000000000001C1E00
00000000000000000000001C3C02
0000000000000000000000383C0E
000000000000000000000038381C
000000000000000000000038383C
0000000000000000000000703C78
0000000000000000000000E03FF0
0000000000000000000000E01FE0
0000000000000000000001C00F80
0000000000000000000001C00000
0000000000000000000003800000
0000000000000000000007000000
000000000000000000000F000000
000000000000000000000E000000
000000000000000000001C000000
000000000000000000003C000000
0000000000000000000038000000
0000000000000000000070000000
01C00000000000000000F0000000
07000000000000000001E0000000
0E000000000000000003C0000000
1C00000000000000000780000000
3800000000000000000F00000000
7000000000000000001E00000000
6000000000000000003C00000000
E000000000000000007800000000
E00000000000000000F000000000
C00000000000000003E000000000
C00000000000000007C000000000
C0000000000000000F8000000000
E0000000000000001E0000000000
E0000000000000007C0000000000
E000000000000000F80000000000
7000000000000003E00000000000
700000000000000FC00000000000
780000000000003F000000000000
3C0000000000007C000000000000
1E000000000003F8000000000000
1F00000000000FE0000000000000
0F80000000003F80000000000000
07E000000001FE00000000000000
01F80000000FF800000000000000
00FF000001FFC000000000000000
003FFC03FFFF0000000000000000
000FFFFFFFF00000000000000000
0001FFFFFF000000000000000000
000003FF80000000000000000000
ENDCHAR
STARTCHAR 0071
ENCODING 113
SWIDTH 423 0
DWIDTH 22 0
BBX 71 56 -10 -33
BITMAP
000003C00000000000
00001FF00000000000
00003FF80000000000
0000F8380000000000
0001E0380000000000
0001C0180000000000
0003C0180000000000
000780180000000000
000F00380000000000
000F00380000000000
000E00380000000000
001E00780000000000
001C00700000000000
001C00700000000000
001C00E00000000000
001C01E00000000000
001C03C00000000000
001E07C00000000000
001E0F800000000000
001FFF800000000000
001FFF000000000000
000FFE000000000000
00079C000000000000
000038000000000000
000070000000000000
0000E0000000000000
0003C0000000000000
000F80000000000000
30FE00000000000000
7FF000000000000000
FF0000000000000000
FF8000000000000000
4FF000000000000000
00FC00000000000000
003E00000000000000
000F80000000000000
0007C0000000000000
0003E0000000000000
0001F0000000000000
0000F8000000000000
00007C000000000000
00003E000000000006
00001F800000000006
00000FC0000000000E
000007E0000000000C
000003F00000000018
000001FC0000000038
0000007E0000000060
0000003F80000001C0
0000001FC000000380
00000007F000000F00
00000003FE00003C00
00000000FFC001F000
000000003FFFFFC000
0000000007FFFF0000
00000000003FE00000
ENDCHAR
STARTCHAR 0072
ENCODING 114
SWIDTH 384 0
DWIDTH 20 0
BBX 23 22 -4 1
BITMAP
0003F8
000FFC
001E3C
00381C
00703C
00E038
01C078
0380F0
0701E0
0E07C0
0C0F80
183F00
387C00
30F802
61F006
E1E00E
C1E01C
83E070
03FFE0
01FFC0
01FF00
007C00
ENDCHAR
STARTCHAR 0073
ENCODING 115
SWIDTH 288 0
DWIDTH 15 0
BBX 20 23 -4 -1
BITMAP
0000E0
0001F0
0003F0
0007F0
000FF0
001FC0
003F80
003B00
007700
00E700
01E700
01C700
F38700
FF0700
FE0700
FC0700
F80700
F80600
7C0E00
7E1E00
3FFC00
1FF800
0FF000
ENDCHAR
STARTCHAR 0074
ENCODING 116
SWIDTH 288 0
DWIDTH 15 0
BBX 83 45 -1 -15
BITMAP
0001C00000000000000000
0007C00000000000000000
0007800000000000000000
000F800000000000000000
001F000000000000000000
003E000000000000000000
007C000000000000000000
00780001FFFFFFC0000000
00F07FFFFFFFFFFF800000
07FFFFFFFC0FFFFFF80000
07FFF0000000001FFE0000
03C0000000000000FFC000
03800000000000000FE000
078000000000000003F800
0F0000000000000000FC00
0F00000000000000007E00
1E00000000000000001F00
1E00000000000000000F80
3C00000000000000000780
38000000000000000007C0
78000000000000000003C0
70400000000000000003E0
70E00000000000000001E0
F0E00000000000000001E0
F0E00000000000000001E0
E1C00000000000000000E0
F1C00000000000000000E0
FF800000000000000000E0
7F000000000000000000E0
3E000000000000000001E0
00000000000000000001C0
00000000000000000001C0
00000000000000000001C0
0000000000000000000380
0000000000000000000380
0000000000000000000700
0000000000000000000E00
0000000000000000001C00
0000000000000000003C00
000000000000000000F000
000000000000000001E000
000000000000000007C000
000000000000F0003F0000
0000000000007FFFFC0000
0000000000001FFFC00000
ENDCHAR
STARTCHAR 0075
ENCODING 117
SWIDTH 730 0
DWIDTH 38 0
BBX 38 25 -1 -3
BITMAP
01C0700000
03C0F00000
03C0E00000
0781E00000
0781C00000
0F03C00000
0F03800000
1E078003F0
1E070003F8
1C0E000038
380E00001C
381C00001C
781C00001C
703800001C
F038000018
E078000038
E0F0000038
E1F0000070
F3F00000F0
FF780001E0
FE380007C0
783C001F00
001FC3FE00
001FFFF800
0007FFC000
ENDCHAR
STARTCHAR 0076
ENCODING 118
SWIDTH 403 0
DWIDTH 21 0
BBX 22 23 -2 0
BITMAP
03C000
1FF0F0
7FF9F8
F07FFC
803FFC
001E3C
001C3C
001C3C
001C38
003878
003870
0078F0
0071E0
00E3C0
01E380
03C780
078F00
0F1E00
1E3800
3FF000
3FE000
3FC000
3F0000
ENDCHAR
STARTCHAR 0077
ENCODING 119
SWIDTH 634 0
DWIDTH 33 0
BBX 52 59 -18 -1
BITMAP
0000FFC0000000
000FFFFE000000
003FFFFFC00000
00FC000FF00000
01E00000FC0000
038000003F0000
070000000FC000
0E00000003E000
1C00000001F000
3800000000F800
30000000007C00
70000000003E00
60000000001E00
60000000000F00
E0000000000780
E0000000000780
E00000000003C0
E00000000003C0
E00000000001C0
E00000000001E0
E00000000000E0
600000010000E0
700000030000F0
700000030000F0
38000003000070
1C000003000070
1E000007000070
0F000006000070
07C0001C000070
01F00038000070
00FF87F0000070
001FFFC0000070
0003FE00000070
00000000000070
00000000000070
00000000000070
00000020000060
000001FC0780E0
000001FE0FC0E0
000003FE0FC0E0
0000030F0FC1C0
000001071F81C0
000000071F0180
000000071E0380
000000071E0300
000000063C0700
0000000E3C0E00
0000000E7C0E00
0000001CFC1C00
0000001DDC3800
0000003B9C7000
000000779CE000
000000EF19C000
000001FC3F8000
000007F83F0000
00001FE07E0000
00007FC1F80000
0000FF03E00000
00007801E00000
ENDCHAR
STARTCHAR 0078
ENCODING 120
SWIDTH 538 0
DWIDTH 28 0
BBX 126 47 -4 -1
BITMAP
000000000000001C0000000000000000
000000000078003E0001E00000000000
0000000000FC007F0007F00000000000
0000000001FE0073000F700000000000
00000000018E0063000E700000000000
00000000038E0063801C300000000000
0001C000038E0063001C700000000000
007FFFC0038C0073001C70000001FF00
01FFFFF801FC003B000EE000001FFFC0
07C003FE01F0001E000FC00000FFFFF0
0F00007FC1F0000E000780000FFFFFF0
1C00001FFFF8001FC01FC0007FFFFFF8
38000007FE3C0039FFFEFC3FFFFFFFFC
38000000301F83F07FF87FFFFFC003FC
300000000007FFE00F801FFFF00001FC
700000000001FF80000001F0000000FC
700000000000000000000000000000FC
700000000000000000000000000000FC
700000000000000000000000000000F8
300000000000000000000000000000F0
380000000000000000000000000000E0
38000000000000000000000000000000
1C000000000000000000000000000000
1E000000000000000000000000000000
0F81F000000000000000000000000000
07FFF00F800000000000000000000000
03FFF03FC00000000000000000000000
00FFF8FFC00000000000000000000000
001F79FFC00000000000000000000000
00003FE1000000000000000000000000
00003F80000000000000000000000000
00003E00000000000000000000000000
00003C00000000000000000000000000
00007800000000000000000000000000
00007000000000000000000000000000
0000E000000000000000000000000000
0000E000000000000000000000000000
0001E000000000000000000000000000
7801C000000000000000000000000000
7C03C000000000000000000000000000
7C07C000000000000000000000000000
FC0EE000000000000000000000000000
F83EE000000000000000000000000000
707CF9C0000000000000000000000000
7FF8FFC0000000000000000000000000
3FE07F80000000000000000000000000
1F803F00000000000000000000000000
ENDCHAR
STARTCHAR 0079
ENCODING 121
SWIDTH 384 0
DWIDTH 20 0
BBX 51 59 -31 -36
BITMAP
000000000300E0
000000000700E0
000000000F01C0
000000000F03C0
000000000E03C0
000000001E0780
000000001C0700
000000003C0F00
00000000380E00
00000000780E00
00000000701E00
00000000F01C00
00000000E03C00
00000001E03800
00000001C07800
00000001C0F000
00000003C0F000
00000003C1F000
00000003E7E000
00000003FEE000
00000001FCE000
00000001F1C000
0000000001C000
0000000001C000
00000000038000
00000000038000
00000000070000
00000000070000
000000000E0000
000000000E0000
000000001C0000
000000003C0000
00000000380000
00000000783000
00000000F03000
00000000E03000
00000001E03000
00000003C03000
00000003802000
00000007006000
0000000F006000
0000001E00C000
0000003C00C000
00000078018000
000000F0038000
000001E0070000
000003C00E0000
000007801C0000
00000F00780000
00001E01F00000
00007C07C00000
0000F83F000000
001FE3FC000000
1FFFFFF0000000
7FFFFF00000000
FFFF0000000000
FFE00000000000
7F000000000000
18000000000000
ENDCHAR
STARTCHAR 007A
ENCODING 122
SWIDTH 423 0
DWIDTH 22 0
BBX 39 40 -1 -18
BITMAP
3FF0000000
FFFF1F0000
FFFFFF0000
000FFE0000
0007E00000
0003C00000
0007800000
000F000000
001E000000
001E000000
003C000000
0078000000
0070000000
00E0000000
01E0000000
01C0000000
0380000000
0780000000
1FC0000000
3FF8000000
3FFE000000
3FFF000000
000F800000
0007C00000
0003E00000
0001E00000
0000F00000
0000F00000
0000780000
0000380078
00003C007C
00001E007E
00001E000E
00000F000E
000007800E
000007C01C
000003F03C
000000FFF8
0000007FF0
0000001FC0
ENDCHAR
STARTCHAR 00A9
ENCODING 169
SWIDTH 2288 0
DWIDTH 119 0
BBX 82 81 22 -15
BITMAP
0000000400000000000000
0000001E00000000000000
0000001E00000000000000
0000003F00000000000000
0000003F00000000000000
0000007F007FFC00000000
0000007F87FFFF80000000
000000FFBFE00FE0000000
0000C0FFFC0001F8000000
0001C1FFE000007C000000
0003E1BFC000001F000000
0007E31FE0000007800000
000FF31FF1FF8003C00000
001FF71FFFFFE001E00000
003FFE3BFFFFF000F00000
007FFE71FFFFFC00780000
00FFFE61FFFFFE003C0600
01FDFCE0FE07FF001E1F00
03F1FDC1FF00FF800E7F80
07E1FD87BF007FC00FFF80
0FC0FF8F1F807FF007FFC0
0F80FF1E0FC07FFFFFFFC0
1F807F7807C07FFFFFFF80
3F007FF007C0FFFFFFFF80
3E007FE003E0FFFFFFFE00
3E003FC003E0FFFFFFFC00
7C003F8001E1FF3FFFF000
7C003F8001E1FF07FF7800
7C003F8001E1FE00007800
F8001F8003E1FE00003800
F8001F8003E3FC00003800
F8001F0003C3FC00003800
F8001F0007C3FC00381C00
F8001F000F83F800381C00
F80C1F001F87F800781C00
F81F0F003F1FFE00F81C00
F83F0F007E7FFF83F81C00
F87F8F01F8FFFFFFF01C00
F8FF8F87F1FFFFFFF01C00
FBE78F8FC3FBFFFFE01C00
FFC78FBF07E1F9FFE01C00
FF870FFE07C1F801E01E00
FF870FF80F81F801E01C00
FF0E0FE00F01FC00C01C00
7E1E3F800E01FC00C01C00
1E3C7F801E00FE00C01C00
0031FF807FC0FF00601C00
0003EF81FFF0FF00601C00
000FCF83FFF87F80203C00
001F8F83DC7C7FC0003C00
003F0F879C1E3FC0003800
007E0F871C0E1FE0007800
00FC0F8E0C071FE0007800
00F80F8E0E030FF000F000
01F00F8E0E0307F000F000
01E00F8E070703F801E000
03C01F8E03C701F801E000
03C01F8F03FF00F803C000
03C01F8F00FE00F803C000
03801F8700180078078000
03801F8780000078078000
03C01F87800000780F0000
03C01F83C00000F81E0000
01C01FC3E00000F01E0000
01E00FC1F00001F03C0000
01E00FC0F00003E0780000
00F007E0780007E0F00000
00F803F03E000FC1F00000
007801F81F807F83E00000
003C007E0FFFFE07C00000
001E000C03FFFC0F800000
001F000000FFE01F000000
0007C0000000003C000000
0003E000000000F8000000
0001FC00000003F0000000
00007F0000001FC0000000
00003FF80001FF00000000
000007FFFFFFFC00000000
000001FFFFFFF000000000
0000001FFFFF0000000000
000000000FC00000000000
ENDCHAR
STARTCHAR 00DF
ENCODING 223
SWIDTH 519 0
DWIDTH 27 0
BBX 83 77 -39 -24
BITMAP
0000000000000000003F80
000000000000000001FFC0
000000000000000007FFE0
00000000000000001F81E0
00000000000000003E01E0
0000000000000000F800E0
0000000000000001F001E0
0000000000000003C001C0
00000000000000078003C0
000000000000000F0003C0
000000000000001E000780
000000000000003C000F00
0000000000000078000F00
00000000000000F0001E00
00000000000001E0003C00
00000000000003C0007800
000000000000078001F000
000000000000078003E000
0000000000000F0007C000
0000000000001E001F8000
0000000000001C003F0000
0000000000003C00FC0000
0000000000007801F80000
0000000000007007E00000
000000000000F01F800000
000000000001E03E000000
000000000001E0FC000000
000000000003C1F0000000
000000000003C3C0000000
0000000000038380000000
0000000000078780000000
0000000000070700000000
00000000000F0700000000
00000000000E07003F8000
00000000000E0701FF0000
00000000001C078FE00000
00000000001C03BF000000
00000000003C03F8000000
00000000003803E0000000
0000000000380FC0000000
0000000000781FC0000000
0000000000703DC0000000
00000000007079C0000000
00000000007071E0000000
0000000000E0E0E0000000
0000000000E0E0E0000000
0000000000E0E0E0000000
0000000001C0E1E0000000
0000000001C0E1E0000000
0000000001C0FBC0000000
000000000380FFC0000000
0000000003807F80000000
0000000003803E00000000
0000000007000000000000
0000000007000000000000
0000000007000000000000
000000000E000000000000
000000000E000000000000
000000001E000000000000
000000001C000000000000
000000003C000000000000
0000000038000000000000
0000000078000000000000
0000000070000000000000
00000000E0000000000000
00000001E0000000000000
3C000003C0000000000000
FC00000780000000000000
FE00000F80000000000000
FE00001F00000000000000
FE00003E00000000000000
FF00007C00000000000000
7F8001F000000000000000
3FC00FE000000000000000
1FFFFF8000000000000000
0FFFFE0000000000000000
01FFF00000000000000000
ENDCHAR
ENDFONT
